<svg width="274" height="170" viewBox="0 0 274 170" fill="none" xmlns="http://www.w3.org/2000/svg">
<path d="M3.328 101.648L2.56 98.704L61.952 32.4H71.296V98.064H83.2V101.648H71.296V115.344C71.296 116.283 71.4667 116.965 71.808 117.392C72.2347 117.733 73.0453 117.989 74.24 118.16L83.2 119.44V122H32V119.44L42.112 118.16C43.392 117.904 44.2027 117.605 44.544 117.264C44.9707 116.923 45.184 116.24 45.184 115.216V101.648H3.328ZM45.184 98.064V56.848L8.192 98.064H45.184ZM136.542 30.864C144.734 30.864 152.073 32.6133 158.558 36.112C165.129 39.6107 170.291 44.8587 174.046 51.856C177.801 58.768 179.678 67.216 179.678 77.2C179.678 87.184 177.801 95.6747 174.046 102.672C170.291 109.584 165.129 114.789 158.558 118.288C152.073 121.787 144.734 123.536 136.542 123.536C128.35 123.536 120.969 121.787 114.398 118.288C107.913 114.789 102.793 109.584 99.038 102.672C95.2833 95.6747 93.406 87.184 93.406 77.2C93.406 67.216 95.2833 58.768 99.038 51.856C102.793 44.8587 107.913 39.6107 114.398 36.112C120.969 32.6133 128.35 30.864 136.542 30.864ZM136.542 119.824C142.174 119.824 146.057 116.325 148.19 109.328C150.323 102.245 151.39 91.536 151.39 77.2C151.39 62.864 150.323 52.1973 148.19 45.2C146.057 38.1173 142.174 34.576 136.542 34.576C130.91 34.576 127.027 38.1173 124.894 45.2C122.761 52.1973 121.694 62.864 121.694 77.2C121.694 91.536 122.761 102.245 124.894 109.328C127.027 116.325 130.91 119.824 136.542 119.824ZM189.703 101.648L188.935 98.704L248.327 32.4H257.671V98.064H269.575V101.648H257.671V115.344C257.671 116.283 257.842 116.965 258.183 117.392C258.61 117.733 259.42 117.989 260.615 118.16L269.575 119.44V122H218.375V119.44L228.487 118.16C229.767 117.904 230.578 117.605 230.919 117.264C231.346 116.923 231.559 116.24 231.559 115.216V101.648H189.703ZM231.559 98.064V56.848L194.567 98.064H231.559Z" fill="url(#paint0_linear_1279_4)"/>
<path d="M50.76 158.08C50.76 158.373 50.8133 158.573 50.92 158.68C51.0533 158.787 51.32 158.88 51.72 158.96L53.12 159.28V160H44.8C44.08 160 43.56 159.813 43.24 159.44C42.92 159.067 42.76 158.507 42.76 157.76V145.6C42.76 144.4 42.56 143.547 42.16 143.04C41.7867 142.533 41.1467 142.28 40.24 142.28C38.64 142.28 37 142.947 35.32 144.28V158.08C35.32 158.373 35.3733 158.587 35.48 158.72C35.6133 158.827 35.8667 158.92 36.24 159L37.6 159.28V160H24.96V159.28L26.36 158.96C26.76 158.88 27.0133 158.787 27.12 158.68C27.2533 158.573 27.32 158.373 27.32 158.08V142.96C27.32 142.667 27.2533 142.467 27.12 142.36C27.0133 142.253 26.76 142.16 26.36 142.08L24.96 141.76V141.04L34.56 139.84H35.24V143.08C36.2533 142.253 37.4933 141.547 38.96 140.96C40.4267 140.373 42.0533 140.08 43.84 140.08C46.32 140.08 48.0933 140.6 49.16 141.64C50.2267 142.68 50.76 144.24 50.76 146.32V158.08ZM80.96 150.28C80.96 153.72 79.88 156.28 77.72 157.96C75.5867 159.64 72.5067 160.48 68.48 160.48C64.4533 160.48 61.36 159.64 59.2 157.96C57.0667 156.28 56 153.72 56 150.28C56 146.84 57.0667 144.28 59.2 142.6C61.36 140.92 64.4533 140.08 68.48 140.08C72.5067 140.08 75.5867 140.92 77.72 142.6C79.88 144.28 80.96 146.84 80.96 150.28ZM64.32 150.28C64.32 152.653 64.4267 154.48 64.64 155.76C64.88 157.04 65.2933 157.973 65.88 158.56C66.4667 159.147 67.3333 159.44 68.48 159.44C69.6267 159.44 70.4933 159.147 71.08 158.56C71.6667 157.973 72.0667 157.04 72.28 155.76C72.52 154.48 72.64 152.653 72.64 150.28C72.64 147.907 72.52 146.08 72.28 144.8C72.0667 143.52 71.6667 142.587 71.08 142C70.4933 141.413 69.6267 141.12 68.48 141.12C67.3333 141.12 66.4667 141.413 65.88 142C65.2933 142.587 64.88 143.52 64.64 144.8C64.4267 146.08 64.32 147.907 64.32 150.28ZM83.8253 141.6V140.56C84.652 140.56 85.2653 140.493 85.6653 140.36C86.0653 140.227 86.4653 139.987 86.8653 139.64L93.9853 133.24H94.3453V140.56H99.5053V141.6H94.3453V155.04C94.3453 156.32 94.492 157.227 94.7853 157.76C95.1053 158.267 95.6386 158.52 96.3853 158.52C96.972 158.52 97.492 158.4 97.9453 158.16C98.3986 157.92 98.892 157.507 99.4253 156.92L100.065 157.68C98.3853 159.547 95.9053 160.48 92.6253 160.48C90.412 160.48 88.8253 160.013 87.8653 159.08C86.9053 158.147 86.4253 156.693 86.4253 154.72V141.6H83.8253ZM115.798 140.56V137.36C115.798 135.147 116.478 133.507 117.838 132.44C119.198 131.347 121.452 130.8 124.598 130.8C127.185 130.8 129.305 131.2 130.958 132L130.478 137.24H129.638C129.105 135.72 128.678 134.627 128.358 133.96C128.038 133.267 127.612 132.733 127.078 132.36C126.572 131.96 125.865 131.76 124.958 131.76C124.158 131.76 123.572 131.92 123.198 132.24C122.825 132.56 122.638 133.053 122.638 133.72C122.638 134.307 122.692 134.84 122.798 135.32C122.905 135.773 123.052 136.307 123.238 136.92C123.372 137.32 123.478 137.733 123.558 138.16C123.665 138.56 123.718 138.973 123.718 139.4V140.56H128.558V141.6H123.718V158.04C123.718 158.333 123.772 158.533 123.878 158.64C124.012 158.747 124.278 158.84 124.678 158.92L126.158 159.28V160H113.438V159.28L114.838 158.96C115.238 158.88 115.492 158.787 115.598 158.68C115.732 158.573 115.798 158.373 115.798 158.08V141.6H113.198V140.56H115.798ZM157.366 150.28C157.366 153.72 156.286 156.28 154.126 157.96C151.993 159.64 148.913 160.48 144.886 160.48C140.86 160.48 137.766 159.64 135.606 157.96C133.473 156.28 132.406 153.72 132.406 150.28C132.406 146.84 133.473 144.28 135.606 142.6C137.766 140.92 140.86 140.08 144.886 140.08C148.913 140.08 151.993 140.92 154.126 142.6C156.286 144.28 157.366 146.84 157.366 150.28ZM140.726 150.28C140.726 152.653 140.833 154.48 141.046 155.76C141.286 157.04 141.7 157.973 142.286 158.56C142.873 159.147 143.74 159.44 144.886 159.44C146.033 159.44 146.9 159.147 147.486 158.56C148.073 157.973 148.473 157.04 148.686 155.76C148.926 154.48 149.046 152.653 149.046 150.28C149.046 147.907 148.926 146.08 148.686 144.8C148.473 143.52 148.073 142.587 147.486 142C146.9 141.413 146.033 141.12 144.886 141.12C143.74 141.12 142.873 141.413 142.286 142C141.7 142.587 141.286 143.52 141.046 144.8C140.833 146.08 140.726 147.907 140.726 150.28ZM177.872 142.96C177.872 142.667 177.805 142.467 177.672 142.36C177.565 142.253 177.312 142.16 176.912 142.08L175.512 141.76V141.04L185.192 139.84H185.872V158.08C185.872 158.373 185.925 158.573 186.032 158.68C186.165 158.787 186.432 158.88 186.832 158.96L188.232 159.28V160H180.112C179.338 160 178.778 159.84 178.432 159.52C178.112 159.173 177.952 158.64 177.952 157.92V157.48C176.992 158.307 175.778 159.013 174.312 159.6C172.845 160.187 171.218 160.48 169.432 160.48C166.952 160.48 165.178 159.96 164.112 158.92C163.045 157.88 162.512 156.32 162.512 154.24V142.96C162.512 142.667 162.445 142.467 162.312 142.36C162.205 142.253 161.952 142.16 161.552 142.08L160.152 141.76V141.04L169.832 139.84H170.512V154.96C170.512 156.16 170.698 157.013 171.072 157.52C171.472 158.027 172.125 158.28 173.032 158.28C174.632 158.28 176.245 157.613 177.872 156.28V142.96ZM215.955 158.08C215.955 158.373 216.009 158.573 216.115 158.68C216.249 158.787 216.515 158.88 216.915 158.96L218.315 159.28V160H209.995C209.275 160 208.755 159.813 208.435 159.44C208.115 159.067 207.955 158.507 207.955 157.76V145.6C207.955 144.4 207.755 143.547 207.355 143.04C206.982 142.533 206.342 142.28 205.435 142.28C203.835 142.28 202.195 142.947 200.515 144.28V158.08C200.515 158.373 200.569 158.587 200.675 158.72C200.809 158.827 201.062 158.92 201.435 159L202.795 159.28V160H190.155V159.28L191.555 158.96C191.955 158.88 192.209 158.787 192.315 158.68C192.449 158.573 192.515 158.373 192.515 158.08V142.96C192.515 142.667 192.449 142.467 192.315 142.36C192.209 142.253 191.955 142.16 191.555 142.08L190.155 141.76V141.04L199.755 139.84H200.435V143.08C201.449 142.253 202.689 141.547 204.155 140.96C205.622 140.373 207.249 140.08 209.035 140.08C211.515 140.08 213.289 140.6 214.355 141.64C215.422 142.68 215.955 144.24 215.955 146.32V158.08ZM239.835 160C239.115 160 238.595 159.813 238.275 159.44C237.955 159.067 237.795 158.507 237.795 157.76C236.089 159.573 233.769 160.48 230.835 160.48C227.902 160.48 225.555 159.64 223.795 157.96C222.062 156.28 221.195 153.653 221.195 150.08C221.195 146.64 222.062 144.12 223.795 142.52C225.529 140.893 227.875 140.08 230.835 140.08C232.435 140.08 233.769 140.267 234.835 140.64C235.929 141.013 236.889 141.493 237.715 142.08V133.92C237.715 133.627 237.649 133.427 237.515 133.32C237.409 133.213 237.155 133.12 236.755 133.04L235.355 132.72V132L244.955 130.8H245.715V158.08C245.715 158.373 245.769 158.573 245.875 158.68C246.009 158.787 246.275 158.88 246.675 158.96L248.075 159.28V160H239.835ZM233.195 158.76C234.769 158.76 236.275 158.013 237.715 156.52V143.28C236.435 142.267 234.995 141.76 233.395 141.76C231.929 141.76 230.902 142.413 230.315 143.72C229.729 145 229.435 147.12 229.435 150.08C229.435 152.187 229.542 153.867 229.755 155.12C229.995 156.347 230.382 157.267 230.915 157.88C231.475 158.467 232.235 158.76 233.195 158.76Z" fill="url(#paint1_linear_1279_4)"/>
<defs>
<linearGradient id="paint0_linear_1279_4" x1="274" y1="77" x2="0" y2="77" gradientUnits="userSpaceOnUse">
<stop stop-color="#F0CB6C"/>
<stop offset="0.5" stop-color="#BDA055"/>
<stop offset="1" stop-color="#F0CB6C"/>
</linearGradient>
<linearGradient id="paint1_linear_1279_4" x1="24" y1="146" x2="250" y2="146" gradientUnits="userSpaceOnUse">
<stop stop-color="#F0CB6C"/>
<stop offset="0.5" stop-color="#BDA055"/>
<stop offset="1" stop-color="#F0CB6C"/>
</linearGradient>
</defs>
</svg>
