<svg width="512" height="474" viewBox="0 0 512 474" fill="none" xmlns="http://www.w3.org/2000/svg">
<path d="M444.344 133.768C427.899 133.781 412.037 139.857 399.792 150.835C387.547 161.812 379.779 176.918 377.976 193.264L377.944 193.568L326.232 207.408C318.867 197.875 309.011 190.564 297.752 186.28L297.296 186.136V129.736C322.312 119.64 339.64 95.56 339.64 67.416C339.64 30.392 309.64 0.376007 272.6 0.376007C254.823 0.38025 237.775 7.44524 225.206 20.0172C212.637 32.5892 205.576 49.6387 205.576 67.416C205.572 80.7731 209.557 93.827 217.022 104.904C224.487 115.98 235.09 124.574 247.472 129.584L247.912 129.744V184.44C242.284 186.599 237.004 189.572 232.24 193.264L232.384 193.152L134.064 139.528C134.167 137.567 134.167 135.601 134.064 133.64V133.784C134.064 96.752 104.064 66.744 67.032 66.744C49.2533 66.7461 32.2034 73.8102 19.6327 86.3824C7.06202 98.9546 -1.26585e-07 116.005 0 133.784C0.00212157 151.563 7.06618 168.613 19.6384 181.183C32.2106 193.754 49.2613 200.816 67.04 200.816C83.4524 200.816 99.2654 194.648 111.344 183.536L111.296 183.576L206.624 236.136C206.295 239.902 206.3 243.691 206.64 247.456L206.624 247.216C206.632 256.215 208.427 265.123 211.904 273.424L211.736 272.976L137.248 345.32C128.664 341.277 119.297 339.169 109.808 339.144H109.792L108.512 339.128C99.6812 339.128 90.937 340.867 82.7785 344.247C74.6201 347.627 67.2072 352.58 60.9633 358.825C54.7194 365.07 49.7667 372.483 46.388 380.642C43.0094 388.801 41.2709 397.545 41.272 406.376C41.272 415.207 43.0115 423.951 46.3911 432.109C49.7707 440.268 54.7243 447.681 60.969 453.925C67.2136 460.169 74.6271 465.121 82.7859 468.5C90.9448 471.879 99.6892 473.617 108.52 473.616C117.35 473.616 126.094 471.877 134.252 468.498C142.41 465.119 149.822 460.166 156.066 453.922C162.31 447.678 167.263 440.266 170.642 432.108C174.021 423.95 175.76 415.206 175.76 406.376C176.037 397.183 174.318 388.04 170.72 379.576L170.88 379.992L245.36 307.64C253.923 311.587 263.243 313.619 272.672 313.592H272.832C279.121 313.548 285.37 312.578 291.376 310.712L290.928 310.832L312.208 343.824C304.442 354.925 300.28 368.148 300.288 381.696V381.904C300.288 399.737 307.372 416.84 319.982 429.45C332.592 442.06 349.695 449.144 367.528 449.144C385.361 449.144 402.464 442.06 415.074 429.45C427.684 416.84 434.768 399.737 434.768 381.904C434.768 364.071 427.684 346.968 415.074 334.358C402.464 321.748 385.361 314.664 367.528 314.664C362.579 314.674 357.648 315.273 352.84 316.448L353.272 316.352L329.856 280.808C334.726 272.878 337.77 263.964 338.768 254.712L338.792 254.432L390.712 240.592C399.025 252.059 410.757 260.597 424.224 264.982C437.691 269.368 452.201 269.374 465.672 265.001C479.143 260.627 490.882 252.099 499.205 240.64C507.528 229.18 512.008 215.379 512 201.216C512.003 192.413 510.272 183.695 506.905 175.561C503.538 167.427 498.601 160.036 492.377 153.81C486.153 147.585 478.763 142.646 470.63 139.277C462.497 135.908 453.779 134.175 444.976 134.176H444.32H444.352L444.344 133.768Z" fill="url(#paint0_linear_1066_10)"/>
<defs>
<linearGradient id="paint0_linear_1066_10" x1="512" y1="236.996" x2="0" y2="236.996" gradientUnits="userSpaceOnUse">
<stop stop-color="#FFCF43"/>
<stop offset="0.5" stop-color="#FFEBB1"/>
<stop offset="1" stop-color="#FFCF43"/>
</linearGradient>
</defs>
</svg>
