<svg width="512" height="492" viewBox="0 0 512 492" fill="none" xmlns="http://www.w3.org/2000/svg">
<path d="M473.259 206.768L277.184 9.00791C274.547 6.31046 271.397 4.16813 267.919 2.70716C264.441 1.2462 260.706 0.496162 256.933 0.501246C253.164 0.497602 249.432 1.24784 245.957 2.70781C242.482 4.16779 239.334 6.30802 236.699 9.00258L38.5068 206.56C13.7755 231.809 -0.0523819 265.76 0.000149125 301.104C0.000149125 372.437 55.2055 430.891 125.216 436.053L125.664 436.08H135.461C155.651 436.088 175.59 431.601 193.829 422.944L193.003 423.296C179.537 438.906 163.727 452.329 146.139 463.083L145.275 463.573C143.117 464.938 141.339 466.826 140.106 469.062C138.874 471.298 138.226 473.809 138.224 476.363C138.226 480.338 139.791 484.152 142.581 486.984C145.371 489.816 149.162 491.437 153.136 491.499H358.592C361.849 491.456 365.006 490.364 367.593 488.385C370.18 486.405 372.06 483.644 372.952 480.511C373.845 477.378 373.703 474.041 372.547 470.995C371.392 467.95 369.285 465.358 366.539 463.605L366.469 463.573C348.491 452.432 333.115 439.216 320.021 423.984L319.797 423.728C336.661 431.781 356.448 436.485 377.323 436.512H387.136C457.243 430.917 512 372.645 512 301.6C512.041 266.119 498.106 232.049 473.211 206.768L473.221 206.784L473.259 206.768ZM248.64 294.997L234.576 354.891H90.7202L103.072 296.704L107.115 294.581C161.029 267.52 191.941 250.037 191.941 242.155C188.006 240.528 183.757 239.801 179.504 240.027H179.568C168.198 240.132 157.166 243.905 148.112 250.784L148.24 250.688L139.291 257.088L112.229 207.008L118.629 201.888C136.208 188.576 158.453 180.571 182.576 180.571C183.024 180.571 183.47 180.576 183.915 180.587H183.856C228.603 180.587 259.936 204.672 259.936 239.2C259.512 250.794 256.056 262.075 249.911 271.916C243.767 281.757 235.149 289.815 224.917 295.285L224.565 295.461L248.64 294.997ZM365.846 354.891H299.563L316.827 276.245L299.131 290.747L267.371 248.117L348.363 182.267H403.776L365.846 354.891Z" fill="url(#paint0_linear_1066_67)"/>
<defs>
<linearGradient id="paint0_linear_1066_67" x1="512" y1="246" x2="0" y2="246" gradientUnits="userSpaceOnUse">
<stop stop-color="#FFCF43"/>
<stop offset="0.5" stop-color="#FFEBB1"/>
<stop offset="1" stop-color="#FFCF43"/>
</linearGradient>
</defs>
</svg>
