<svg width="512" height="512" viewBox="0 0 512 512" fill="none" xmlns="http://www.w3.org/2000/svg">
<path fill-rule="evenodd" clip-rule="evenodd" d="M255.824 0.0161133C316.192 0.0161133 371.68 20.9174 414.917 55.4881L415.429 55.8881C474.277 102.757 512 175.035 512 256.128C512 396.864 398.384 511.056 257.776 511.984H257.68C206.923 511.024 166.085 469.589 166.085 418.613C166.085 408.395 167.712 398.56 170.56 390.021L171.44 386.901C176.507 371.2 182.443 355.867 188.053 343.765C201.784 353.483 218.197 358.689 235.019 358.661C237.019 358.661 239.019 358.597 240.715 358.469C228.352 398.768 254.581 451.216 254.581 451.216C332.181 373.616 312.784 315.408 312.784 315.408C409.787 218.4 390.384 121.387 390.384 121.387C390.384 121.387 293.387 101.973 196.373 198.987C196.373 198.987 138.165 179.579 60.5653 257.408C60.5653 257.408 113.013 283.632 153.312 271.275C153.195 273.038 153.136 274.813 153.136 276.597C153.136 294.315 158.715 310.736 168.021 323.931L170.645 322.859C155.792 329.621 140.459 335.552 121.76 341.408L122.416 341.216C113.107 344.225 103.383 345.751 93.6 345.739C42.4 345.739 0.8 304.645 0 253.568V251.648C2.256 112.288 115.936 0.0161133 255.824 0.0161133ZM332.213 218.4L332.197 218.416L332.229 218.384L332.213 218.4ZM293.355 179.6C288.984 184.602 286.582 191.022 286.597 197.664C286.597 202.948 288.118 208.121 290.978 212.564C293.839 217.007 297.918 220.533 302.729 222.719C307.539 224.906 312.878 225.662 318.106 224.896C323.335 224.13 328.232 221.875 332.213 218.4C336.582 213.398 338.982 206.977 338.965 200.336C338.966 195.052 337.445 189.879 334.584 185.436C331.724 180.993 327.644 177.468 322.834 175.281C318.023 173.094 312.685 172.338 307.456 173.104C302.228 173.87 297.331 176.125 293.349 179.6M293.349 179.6L293.36 179.584L293.328 179.616L293.349 179.6Z" fill="url(#paint0_linear_1066_59)"/>
<defs>
<linearGradient id="paint0_linear_1066_59" x1="512" y1="256" x2="0" y2="256" gradientUnits="userSpaceOnUse">
<stop stop-color="#FFCF43"/>
<stop offset="0.5" stop-color="#FFEBB1"/>
<stop offset="1" stop-color="#FFCF43"/>
</linearGradient>
</defs>
</svg>
