<svg width="512" height="512" viewBox="0 0 512 512" fill="none" xmlns="http://www.w3.org/2000/svg">
<path fill-rule="evenodd" clip-rule="evenodd" d="M44.336 112.16H74.176L95.4827 133.467L213.12 251.531C213.011 253.052 213.011 254.58 213.12 256.101V256.005C213.12 267.31 217.611 278.151 225.604 286.145C233.598 294.139 244.439 298.629 255.744 298.629C267.049 298.629 277.89 294.139 285.884 286.145C293.877 278.151 298.368 267.31 298.368 256.005C298.369 250.407 297.268 244.864 295.126 239.692C292.985 234.52 289.845 229.821 285.887 225.862C281.929 221.904 277.229 218.765 272.057 216.623C266.885 214.481 261.342 213.38 255.744 213.381H251.264L111.467 74.2186V0.26123H58.6133V58.8746H0V112.144L44.336 112.16ZM255.744 0.27723C220.304 0.30093 185.265 7.78403 152.907 22.2399L154.523 21.5999V56.7626L170.507 72.7466C195.696 60.6932 225.264 53.6479 256.48 53.6479C368.645 53.6479 459.573 144.576 459.573 256.741C459.573 368.912 368.645 459.835 256.48 459.835C144.309 459.835 53.3813 368.912 53.3813 256.741C53.3813 225.995 60.2187 196.848 72.4427 170.736L72.48 170.768L73.0133 169.541L72.4427 170.736L56.496 154.992H21.3333C8.19733 184.773 0.544 219.504 0.544 256.005C0.544 397.248 115.029 511.739 256.272 511.739C397.515 511.739 512 397.243 512 256C512 114.757 397.515 0.27723 256.267 0.27723H255.744ZM160.037 258.469C161.349 310.24 203.669 351.808 255.728 351.909L255.712 352.128H256.88C309.845 352.128 352.773 309.195 352.773 256.235C352.773 203.68 310.501 160.987 258.043 160.336L211.163 113.664L210.128 113.952C224.728 109.222 239.981 106.821 255.328 106.837H255.712C338.085 106.837 404.885 173.611 404.885 256.011C404.885 338.384 338.085 405.179 255.712 405.179C173.333 405.179 106.539 338.405 106.539 256.005V255.627C106.539 239.851 109.035 224.667 113.365 211.467L160.032 258.341L160.037 258.469Z" fill="url(#paint0_linear_1066_38)"/>
<defs>
<linearGradient id="paint0_linear_1066_38" x1="512" y1="256" x2="0" y2="256" gradientUnits="userSpaceOnUse">
<stop stop-color="#FFCF43"/>
<stop offset="0.5" stop-color="#FFEBB1"/>
<stop offset="1" stop-color="#FFCF43"/>
</linearGradient>
</defs>
</svg>
