<svg width="64" height="36" viewBox="0 0 68 36" fill="none" xmlns="http://www.w3.org/2000/svg">
<path d="M66 2C58.722 9.21875 51.6731 18.5 34 18.5C16.3269 18.5 10.0866 10.0208 2 2" stroke="#FED253" stroke-width="3"/>
<path d="M6.15621 25.6701C5.511 26.8907 5.97751 28.4033 7.1982 29.0486C8.41888 29.6938 9.93149 29.2273 10.5767 28.0066L6.15621 25.6701ZM13.4707 11.8317L6.15621 25.6701L10.5767 28.0066L17.8912 14.1683L13.4707 11.8317Z" fill="#FED253"/>
<path d="M22.5546 32.7907C22.2675 34.1412 23.1296 35.4688 24.4802 35.7558C25.8307 36.0429 27.1583 35.1808 27.4453 33.8302L22.5546 32.7907ZM25.8088 17.4802L22.5546 32.7907L27.4453 33.8302L30.6995 18.5198L25.8088 17.4802Z" fill="#FED253"/>
<path d="M43.4852 33.7687C43.8298 35.1057 45.193 35.9103 46.53 35.5657C47.8671 35.2211 48.6716 33.8579 48.327 32.5209L43.4852 33.7687ZM39.5791 18.6114L43.4852 33.7687L48.327 32.5209L44.4209 17.3637L39.5791 18.6114Z" fill="#FED253"/>
<path d="M60.2036 27.7745C60.9004 28.9665 62.4316 29.3679 63.6236 28.671C64.8155 27.9742 65.2169 26.443 64.5201 25.251L60.2036 27.7745ZM52.3039 14.2617L60.2036 27.7745L64.5201 25.251L56.6204 11.7383L52.3039 14.2617Z" fill="#FED253"/>
</svg>
