<svg width="64" height="36" viewBox="0 0 64 33" fill="none" xmlns="http://www.w3.org/2000/svg">
<path d="M60.9629 15.5557C61.2739 15.8746 61.5808 16.1892 61.8845 16.4985C61.4668 16.9221 61.0512 17.3474 60.6355 17.773C57.7264 20.7507 54.8067 23.7393 51.0717 26.2052C46.4339 29.2673 40.5404 31.5 32 31.5C23.4357 31.5 17.746 29.4549 13.2254 26.502C9.59198 24.1286 6.70377 21.1781 3.61414 18.0219C3.12155 17.5187 2.62384 17.0102 2.11717 16.498C2.45624 16.1533 2.79749 15.8038 3.14204 15.4508C9.40486 9.03544 16.7611 1.5 32 1.5C47.2545 1.5 54.8887 9.32761 60.9629 15.5557Z" stroke="#FED253" stroke-width="3"/>
<circle cx="32" cy="17" r="8.5" stroke="#FED253" stroke-width="3"/>
</svg>
