<svg width="81" height="75" viewBox="0 0 81 75" fill="none" xmlns="http://www.w3.org/2000/svg">
<mask id="path-1-inside-1_114_27" fill="white">
<path fill-rule="evenodd" clip-rule="evenodd" d="M12.7845 11C9.0375 11 6 14.0375 6 17.7845L6 60.2155C6 63.9625 9.03751 67 12.7845 67H67.66C71.4069 67 74.4444 63.9625 74.4444 60.2155V17.7845C74.4444 14.0375 71.4069 11 67.66 11L12.7845 11ZM20 45C23.866 45 27 41.866 27 38C27 34.134 23.866 31 20 31C16.134 31 13 34.134 13 38C13 41.866 16.134 45 20 45ZM47 38C47 41.866 43.866 45 40 45C36.134 45 33 41.866 33 38C33 34.134 36.134 31 40 31C43.866 31 47 34.134 47 38ZM60 45C63.866 45 67 41.866 67 38C67 34.134 63.866 31 60 31C56.134 31 53 34.134 53 38C53 41.866 56.134 45 60 45Z"/>
</mask>
<path fill-rule="evenodd" clip-rule="evenodd" d="M12.7845 11C9.0375 11 6 14.0375 6 17.7845L6 60.2155C6 63.9625 9.03751 67 12.7845 67H67.66C71.4069 67 74.4444 63.9625 74.4444 60.2155V17.7845C74.4444 14.0375 71.4069 11 67.66 11L12.7845 11ZM20 45C23.866 45 27 41.866 27 38C27 34.134 23.866 31 20 31C16.134 31 13 34.134 13 38C13 41.866 16.134 45 20 45ZM47 38C47 41.866 43.866 45 40 45C36.134 45 33 41.866 33 38C33 34.134 36.134 31 40 31C43.866 31 47 34.134 47 38ZM60 45C63.866 45 67 41.866 67 38C67 34.134 63.866 31 60 31C56.134 31 53 34.134 53 38C53 41.866 56.134 45 60 45Z" fill="#06695A"/>
<path d="M7.5 17.7845C7.5 14.8659 9.86593 12.5 12.7845 12.5V9.5C8.20908 9.5 4.5 13.2091 4.5 17.7845H7.5ZM7.5 60.2155L7.5 17.7845H4.5L4.5 60.2155H7.5ZM12.7845 65.5C9.86594 65.5 7.5 63.1341 7.5 60.2155H4.5C4.5 64.7909 8.20909 68.5 12.7845 68.5V65.5ZM67.66 65.5H12.7845V68.5H67.66V65.5ZM72.9444 60.2155C72.9444 63.1341 70.5785 65.5 67.66 65.5V68.5C72.2354 68.5 75.9444 64.7909 75.9444 60.2155H72.9444ZM72.9444 17.7845V60.2155H75.9444V17.7845H72.9444ZM67.66 12.5C70.5785 12.5 72.9444 14.8659 72.9444 17.7845H75.9444C75.9444 13.2091 72.2354 9.5 67.66 9.5V12.5ZM12.7845 12.5L67.66 12.5V9.5L12.7845 9.5V12.5ZM25.5 38C25.5 41.0376 23.0376 43.5 20 43.5V46.5C24.6944 46.5 28.5 42.6944 28.5 38H25.5ZM20 32.5C23.0376 32.5 25.5 34.9624 25.5 38H28.5C28.5 33.3056 24.6944 29.5 20 29.5V32.5ZM14.5 38C14.5 34.9624 16.9624 32.5 20 32.5V29.5C15.3056 29.5 11.5 33.3056 11.5 38H14.5ZM20 43.5C16.9624 43.5 14.5 41.0376 14.5 38H11.5C11.5 42.6944 15.3056 46.5 20 46.5V43.5ZM40 46.5C44.6944 46.5 48.5 42.6944 48.5 38H45.5C45.5 41.0376 43.0376 43.5 40 43.5V46.5ZM31.5 38C31.5 42.6944 35.3056 46.5 40 46.5V43.5C36.9624 43.5 34.5 41.0376 34.5 38H31.5ZM40 29.5C35.3056 29.5 31.5 33.3056 31.5 38H34.5C34.5 34.9624 36.9624 32.5 40 32.5V29.5ZM48.5 38C48.5 33.3056 44.6944 29.5 40 29.5V32.5C43.0376 32.5 45.5 34.9624 45.5 38H48.5ZM65.5 38C65.5 41.0376 63.0376 43.5 60 43.5V46.5C64.6944 46.5 68.5 42.6944 68.5 38H65.5ZM60 32.5C63.0376 32.5 65.5 34.9624 65.5 38H68.5C68.5 33.3056 64.6944 29.5 60 29.5V32.5ZM54.5 38C54.5 34.9624 56.9624 32.5 60 32.5V29.5C55.3056 29.5 51.5 33.3056 51.5 38H54.5ZM60 43.5C56.9624 43.5 54.5 41.0376 54.5 38H51.5C51.5 42.6944 55.3056 46.5 60 46.5V43.5Z" fill="black" mask="url(#path-1-inside-1_114_27)"/>
</svg>
