<svg width="512" height="512" viewBox="0 0 512 512" fill="none" xmlns="http://www.w3.org/2000/svg">
<path d="M256 0C205.368 0 155.873 15.0141 113.774 43.1438C71.6751 71.2734 38.863 111.255 19.4869 158.033C0.11092 204.811 -4.95873 256.284 4.91908 305.943C14.7969 355.602 39.1785 401.217 74.9808 437.019C110.783 472.821 156.398 497.203 206.057 507.081C255.716 516.959 307.189 511.889 353.967 492.513C400.745 473.137 440.727 440.325 468.856 398.226C496.986 356.127 512 306.632 512 256H455.111C455.111 295.38 443.433 333.876 421.555 366.62C399.676 399.364 368.579 424.884 332.197 439.955C295.814 455.025 255.779 458.968 217.155 451.285C178.532 443.602 143.053 424.639 115.207 396.793C87.3611 368.946 68.3976 333.468 60.7149 294.845C53.0321 256.221 56.9752 216.186 72.0454 179.803C87.1157 143.421 112.636 112.324 145.38 90.4451C178.124 68.5665 216.62 56.8889 256 56.8889V0ZM256 142.222C248.456 142.222 241.221 145.219 235.887 150.553C230.552 155.888 227.556 163.123 227.556 170.667V312.889H284.444V170.667C284.444 163.123 281.448 155.888 276.113 150.553C270.779 145.219 263.544 142.222 256 142.222Z" fill="url(#paint0_linear_1282_15)"/>
<defs>
<linearGradient id="paint0_linear_1282_15" x1="512" y1="256" x2="0" y2="256" gradientUnits="userSpaceOnUse">
<stop stop-color="#FFCF43"/>
<stop offset="0.5" stop-color="#FFEBB1"/>
<stop offset="1" stop-color="#FFCF43"/>
</linearGradient>
</defs>
</svg>
