<svg width="512" height="490" viewBox="0 0 512 490" fill="none" xmlns="http://www.w3.org/2000/svg">
<path d="M256.008 117L280.76 163.08C294.696 188.816 319.264 207.28 348.416 212.688L349.008 212.784L400.408 221.952L364.368 259.712C346.908 277.671 337.158 301.743 337.2 326.792C337.2 331.496 337.531 336.114 338.192 340.648L338.128 340.135L345.168 391.76L300.8 370.44C287.72 363.976 272.296 360.184 256.008 360.184C239.72 360.184 224.296 363.96 210.608 370.696L211.208 370.424L166.848 391.752L173.888 340.128C174.48 336.128 174.816 331.488 174.816 326.784C174.864 301.719 165.108 277.63 147.632 259.664L147.664 259.704L111.624 220.872L163.024 211.704C177.316 209.106 190.844 203.337 202.613 194.823C214.382 186.309 224.093 175.265 231.032 162.504L231.288 162L256.04 116.992L256.008 117ZM256.008 0.103516H255.96C245.4 0.103516 236.232 5.99152 231.544 14.6795L231.464 14.8235L170.672 129.16C168.685 132.828 165.909 136.01 162.545 138.478C159.181 140.946 155.312 142.638 151.216 143.432L151.04 143.464L23.056 166.504C16.6132 167.618 10.7695 170.968 6.55255 175.965C2.3356 180.961 0.0154127 187.285 0 193.824C0 201.264 2.928 208.016 7.696 213.008L7.68 213L97.48 306.64C100.553 309.72 102.835 313.499 104.131 317.653C105.426 321.808 105.697 326.214 104.92 330.496L104.952 330.336L87.464 458.32C86.9148 462.247 87.2144 466.246 88.3424 470.047C89.4704 473.849 91.4007 477.364 94.0029 480.356C96.6052 483.348 99.8189 485.747 103.427 487.391C107.036 489.036 110.955 489.887 114.92 489.888H114.984C119.561 490.045 124.098 488.991 128.136 486.832L127.992 486.896L242.104 431.855C246.719 429.597 251.791 428.429 256.929 428.443C262.067 428.457 267.133 429.652 271.736 431.936L271.544 431.855L383.968 486.896C387.657 488.874 391.782 489.902 395.968 489.888H396.136H396.12C396.397 489.904 396.701 489.909 397.032 489.904C401.012 489.904 404.944 489.047 408.564 487.393C412.183 485.738 415.403 483.324 418.007 480.314C420.61 477.304 422.535 473.769 423.65 469.949C424.766 466.129 425.046 462.113 424.472 458.176L424.488 458.32L407 330.336C406.362 326.178 406.706 321.93 408.003 317.929C409.3 313.929 411.516 310.287 414.472 307.296L504.272 213.656C507.736 210.042 510.158 205.559 511.281 200.681C512.404 195.803 512.187 190.712 510.652 185.947C509.117 181.183 506.321 176.922 502.561 173.618C498.802 170.313 494.218 168.087 489.296 167.176L489.12 167.152L361.136 144.112C356.94 143.305 352.981 141.557 349.558 138.999C346.135 136.441 343.338 133.14 341.376 129.344L341.296 129.184L280.496 14.8475C278.132 10.4046 274.605 6.68799 270.291 4.09517C265.978 1.50235 261.041 0.130898 256.008 0.127516H255.96L256.008 0.103516Z" fill="url(#paint0_linear_1066_30)"/>
<defs>
<linearGradient id="paint0_linear_1066_30" x1="511.989" y1="245.005" x2="0" y2="245.005" gradientUnits="userSpaceOnUse">
<stop stop-color="#FFCF43"/>
<stop offset="0.5" stop-color="#FFEBB1"/>
<stop offset="1" stop-color="#FFCF43"/>
</linearGradient>
</defs>
</svg>
