<svg width="29" height="31" viewBox="0 0 29 31" fill="none" xmlns="http://www.w3.org/2000/svg">
<mask id="path-1-inside-1_794_2" fill="white">
<path d="M10.0012 13.788C10.0012 17.372 10.3232 20.256 10.9672 22.44C11.6112 24.596 12.6612 26.178 14.1172 27.186C15.6012 28.194 17.5892 28.698 20.0812 28.698H21.4252V18.366H17.2672V17.106H28.7332V28.152C28.1172 28.264 27.3752 28.432 26.5072 28.656C25.6672 28.852 25.0232 29.006 24.5752 29.118C22.7272 29.594 21.2432 29.944 20.1232 30.168C19.0312 30.392 18.0092 30.504 17.0572 30.504C14.0612 30.504 11.3452 30 8.90918 28.992C6.47318 27.956 4.49918 26.276 2.98718 23.952C1.50318 21.628 0.76118 18.604 0.76118 14.88C0.76118 9.812 2.28718 6.088 5.33918 3.708C8.39118 1.3 12.4092 0.0959995 17.3932 0.0959995C19.4652 0.0959995 21.4672 0.277999 23.3992 0.641997C25.3592 1.006 26.8852 1.454 27.9772 1.986L27.3892 9.21H26.2132C25.4292 6.83 24.3512 4.926 22.9792 3.498C21.6352 2.042 19.7872 1.314 17.4352 1.314C14.7752 1.314 12.8712 2.364 11.7232 4.464C10.5752 6.536 10.0012 9.644 10.0012 13.788Z"/>
</mask>
<path d="M10.0012 13.788C10.0012 17.372 10.3232 20.256 10.9672 22.44C11.6112 24.596 12.6612 26.178 14.1172 27.186C15.6012 28.194 17.5892 28.698 20.0812 28.698H21.4252V18.366H17.2672V17.106H28.7332V28.152C28.1172 28.264 27.3752 28.432 26.5072 28.656C25.6672 28.852 25.0232 29.006 24.5752 29.118C22.7272 29.594 21.2432 29.944 20.1232 30.168C19.0312 30.392 18.0092 30.504 17.0572 30.504C14.0612 30.504 11.3452 30 8.90918 28.992C6.47318 27.956 4.49918 26.276 2.98718 23.952C1.50318 21.628 0.76118 18.604 0.76118 14.88C0.76118 9.812 2.28718 6.088 5.33918 3.708C8.39118 1.3 12.4092 0.0959995 17.3932 0.0959995C19.4652 0.0959995 21.4672 0.277999 23.3992 0.641997C25.3592 1.006 26.8852 1.454 27.9772 1.986L27.3892 9.21H26.2132C25.4292 6.83 24.3512 4.926 22.9792 3.498C21.6352 2.042 19.7872 1.314 17.4352 1.314C14.7752 1.314 12.8712 2.364 11.7232 4.464C10.5752 6.536 10.0012 9.644 10.0012 13.788Z" fill="black"/>
<path d="M10.9672 22.44L10.008 22.7228L10.009 22.7262L10.9672 22.44ZM14.1172 27.186L13.5479 28.0082L13.5553 28.0132L14.1172 27.186ZM21.4252 28.698V29.698H22.4252V28.698H21.4252ZM21.4252 18.366H22.4252V17.366H21.4252V18.366ZM17.2672 18.366H16.2672V19.366H17.2672V18.366ZM17.2672 17.106V16.106H16.2672V17.106H17.2672ZM28.7332 17.106H29.7332V16.106H28.7332V17.106ZM28.7332 28.152L28.9121 29.1359L29.7332 28.9866V28.152H28.7332ZM26.5072 28.656L26.7344 29.6298L26.7458 29.6272L26.7571 29.6243L26.5072 28.656ZM24.5752 29.118L24.3326 28.1478L24.3257 28.1496L24.5752 29.118ZM20.1232 30.168L19.9271 29.1874L19.9222 29.1884L20.1232 30.168ZM8.90918 28.992L8.5178 29.9123L8.52683 29.916L8.90918 28.992ZM2.98718 23.952L2.14433 24.4902L2.14897 24.4973L2.98718 23.952ZM5.33918 3.708L5.95413 4.49658L5.95859 4.49307L5.33918 3.708ZM23.3992 0.641997L23.214 1.62471L23.2166 1.62519L23.3992 0.641997ZM27.9772 1.986L28.9739 2.06712L29.0293 1.38621L28.4152 1.08701L27.9772 1.986ZM27.3892 9.21V10.21H28.3111L28.3859 9.29113L27.3892 9.21ZM26.2132 9.21L25.2634 9.52287L25.4897 10.21H26.2132V9.21ZM22.9792 3.498L22.2444 4.17628L22.2512 4.18362L22.2581 4.19082L22.9792 3.498ZM11.7232 4.464L12.5979 4.94864L12.6006 4.94367L11.7232 4.464ZM9.00118 13.788C9.00118 17.4196 9.32604 20.4101 10.008 22.7228L11.9264 22.1572C11.3203 20.1019 11.0012 17.3244 11.0012 13.788H9.00118ZM10.009 22.7262C10.7001 25.0399 11.8595 26.8393 13.548 28.0082L14.6864 26.3638C13.4628 25.5167 12.5222 24.1521 11.9253 22.1538L10.009 22.7262ZM13.5553 28.0132C15.2581 29.1698 17.4643 29.698 20.0812 29.698V27.698C17.7141 27.698 15.9443 27.2182 14.6791 26.3588L13.5553 28.0132ZM20.0812 29.698H21.4252V27.698H20.0812V29.698ZM22.4252 28.698V18.366H20.4252V28.698H22.4252ZM21.4252 17.366H17.2672V19.366H21.4252V17.366ZM18.2672 18.366V17.106H16.2672V18.366H18.2672ZM17.2672 18.106H28.7332V16.106H17.2672V18.106ZM27.7332 17.106V28.152H29.7332V17.106H27.7332ZM28.5543 27.1681C27.9067 27.2859 27.1397 27.46 26.2573 27.6877L26.7571 29.6243C27.6107 29.404 28.3276 29.2421 28.9121 29.1359L28.5543 27.1681ZM26.28 27.6822C25.4384 27.8785 24.7884 28.0339 24.3326 28.1479L24.8177 30.0881C25.258 29.9781 25.896 29.8255 26.7344 29.6298L26.28 27.6822ZM24.3257 28.1496C22.4854 28.6236 21.0213 28.9686 19.9271 29.1874L20.3193 31.1486C21.465 30.9194 22.9689 30.5644 24.8246 30.0864L24.3257 28.1496ZM19.9222 29.1884C18.8855 29.4011 17.9314 29.504 17.0572 29.504V31.504C18.087 31.504 19.1769 31.3829 20.3241 31.1476L19.9222 29.1884ZM17.0572 29.504C14.1746 29.504 11.5909 29.0194 9.29153 28.068L8.52683 29.916C11.0995 30.9806 13.9478 31.504 17.0572 31.504V29.504ZM9.30054 28.0718C7.05638 27.1174 5.23443 25.5724 3.82539 23.4067L2.14897 24.4973C3.76393 26.9796 5.88998 28.7946 8.51782 29.9122L9.30054 28.0718ZM3.83 23.4138C2.47875 21.2977 1.76118 18.4782 1.76118 14.88H-0.23882C-0.23882 18.7298 0.527611 21.9583 2.14436 24.4902L3.83 23.4138ZM1.76118 14.88C1.76118 10.0168 3.2164 6.63149 5.95412 4.49657L4.72424 2.91943C1.35796 5.54451 -0.23882 9.60722 -0.23882 14.88H1.76118ZM5.95859 4.49307C8.7896 2.25942 12.5697 1.096 17.3932 1.096V-0.904001C12.2486 -0.904001 7.99276 0.340573 4.71977 2.92293L5.95859 4.49307ZM17.3932 1.096C19.4064 1.096 21.3463 1.27281 23.214 1.62471L23.5843 -0.340713C21.5881 -0.716813 19.524 -0.904001 17.3932 -0.904001V1.096ZM23.2166 1.62519C25.1369 1.98181 26.5631 2.40947 27.5392 2.88499L28.4152 1.08701C27.2072 0.498526 25.5815 0.0301806 23.5818 -0.341191L23.2166 1.62519ZM26.9805 1.90487L26.3925 9.12887L28.3859 9.29113L28.9739 2.06712L26.9805 1.90487ZM27.3892 8.21H26.2132V10.21H27.3892V8.21ZM27.163 8.89712C26.3442 6.41156 25.1997 4.36583 23.7003 2.80517L22.2581 4.19082C23.5026 5.48617 24.5142 7.24844 25.2634 9.52287L27.163 8.89712ZM23.714 2.81972C22.1453 1.12034 20.0095 0.313999 17.4352 0.313999V2.314C19.5649 2.314 21.125 2.96366 22.2444 4.17628L23.714 2.81972ZM17.4352 0.313999C14.4593 0.313999 12.1918 1.5221 10.8457 3.98433L12.6006 4.94367C13.5506 3.2059 15.091 2.314 17.4352 2.314V0.313999ZM10.8485 3.97936C9.57777 6.27282 9.00118 9.58442 9.00118 13.788H11.0012C11.0012 9.70358 11.5726 6.79918 12.5979 4.94864L10.8485 3.97936Z" fill="url(#paint0_linear_794_2)" mask="url(#path-1-inside-1_794_2)"/>
<defs>
<linearGradient id="paint0_linear_794_2" x1="15" y1="-10" x2="15" y2="40" gradientUnits="userSpaceOnUse">
<stop stop-color="#F6ECA5"/>
<stop offset="1" stop-color="#A67B36"/>
</linearGradient>
</defs>
</svg>
