<svg width="81" height="75" viewBox="0 0 81 75" fill="none" xmlns="http://www.w3.org/2000/svg">
<rect x="38.6334" y="10.0075" width="34.0079" height="37.5714" rx="6.11052" transform="rotate(26.7847 38.6334 10.0075)" fill="#06695A" stroke="black" stroke-width="1.5"/>
<rect x="14.75" y="9.75" width="40.0078" height="54.5" rx="6.11052" fill="#06695A" stroke="black" stroke-width="1.5"/>
<path fill-rule="evenodd" clip-rule="evenodd" d="M32.3676 46.099C32.5713 45.1691 31.4174 44.3796 30.5241 44.7086C27.2437 45.917 23.3362 45.3224 20.6729 42.9247C17.1314 39.7362 17.1314 34.5667 20.6729 31.3783L21.2714 30.8395C21.28 30.8317 21.28 30.8181 21.2714 30.8103V30.8103C21.2627 30.8025 21.2627 30.7889 21.2714 30.7811L33.1621 20.0759C33.684 19.606 34.4764 19.606 34.9982 20.0759L47.4958 31.3275C51.0374 34.5159 51.0374 39.6854 47.4958 42.8739C44.9308 45.1832 41.2114 45.82 38.0098 44.7841C37.0395 44.4701 35.8132 45.3533 36.0548 46.3441V46.3441C36.6234 48.6765 38.3436 50.5571 40.6162 51.3309V51.3309C40.8974 51.4266 40.8286 51.8423 40.5315 51.8423H27.6849C27.3921 51.8423 27.3275 51.4309 27.6061 51.3411V51.3411C30.0131 50.5656 31.8265 48.5692 32.3676 46.099V46.099Z" fill="black"/>
</svg>
