<svg width="512" height="456" viewBox="0 0 512 456" fill="none" xmlns="http://www.w3.org/2000/svg">
<path d="M0.0078125 0.392107V57.3521H56.9678V455.64H106.68C112.904 430.664 135.128 412.456 161.608 412.456C174.21 412.458 186.45 416.669 196.387 424.419C206.323 432.17 213.386 443.018 216.456 455.24L216.536 455.624H296.328C302.552 430.648 324.776 412.44 351.256 412.44C363.858 412.442 376.098 416.653 386.035 424.403C395.971 432.154 403.034 443.002 406.104 455.224L406.184 455.608H455.464V57.3201H511.992V0.360107L0.0078125 0.392107ZM284.376 299.064H142.296V256.392H284.376V299.064ZM369.72 185.352H142.312V142.68H369.72V185.352Z" fill="url(#paint0_linear_1066_43)"/>
<defs>
<linearGradient id="paint0_linear_1066_43" x1="511.992" y1="228" x2="0.0078125" y2="228" gradientUnits="userSpaceOnUse">
<stop stop-color="#FFCF43"/>
<stop offset="0.5" stop-color="#FFEBB1"/>
<stop offset="1" stop-color="#FFCF43"/>
</linearGradient>
</defs>
</svg>
