<svg width="383" height="138" viewBox="0 0 383 138" fill="none" xmlns="http://www.w3.org/2000/svg">
<g filter="url(#filter0_d_48_6)">
<g filter="url(#filter1_d_48_6)">
<rect x="6" width="362.291" height="121.525" rx="60.7625" fill="url(#paint0_linear_48_6)"/>
</g>
<path d="M191.727 86.6364C188.606 86.6364 185.848 86.0833 183.455 84.9773C181.076 83.8561 179.22 82.3182 177.886 80.3636C176.553 78.3939 175.894 76.1515 175.909 73.6364C175.894 71.6667 176.28 69.8485 177.068 68.1818C177.856 66.5 178.932 65.0985 180.295 63.9773C181.674 62.8409 183.212 62.1212 184.909 61.8182V61.5455C182.682 60.9697 180.909 59.7197 179.591 57.7955C178.273 55.8561 177.621 53.6515 177.636 51.1818C177.621 48.8182 178.22 46.7045 179.432 44.8409C180.644 42.9773 182.311 41.5076 184.432 40.4318C186.568 39.3561 189 38.8182 191.727 38.8182C194.424 38.8182 196.833 39.3561 198.955 40.4318C201.076 41.5076 202.742 42.9773 203.955 44.8409C205.182 46.7045 205.803 48.8182 205.818 51.1818C205.803 53.6515 205.129 55.8561 203.795 57.7955C202.477 59.7197 200.727 60.9697 198.545 61.5455V61.8182C200.227 62.1212 201.742 62.8409 203.091 63.9773C204.439 65.0985 205.515 66.5 206.318 68.1818C207.121 69.8485 207.53 71.6667 207.545 73.6364C207.53 76.1515 206.848 78.3939 205.5 80.3636C204.167 82.3182 202.311 83.8561 199.932 84.9773C197.568 86.0833 194.833 86.6364 191.727 86.6364ZM191.727 81.6364C193.833 81.6364 195.652 81.2955 197.182 80.6136C198.712 79.9318 199.894 78.9697 200.727 77.7273C201.561 76.4848 201.985 75.0303 202 73.3636C201.985 71.6061 201.53 70.053 200.636 68.7045C199.742 67.3561 198.523 66.2955 196.977 65.5227C195.447 64.75 193.697 64.3636 191.727 64.3636C189.742 64.3636 187.97 64.75 186.409 65.5227C184.864 66.2955 183.644 67.3561 182.75 68.7045C181.871 70.053 181.439 71.6061 181.455 73.3636C181.439 75.0303 181.841 76.4848 182.659 77.7273C183.492 78.9697 184.682 79.9318 186.227 80.6136C187.773 81.2955 189.606 81.6364 191.727 81.6364ZM191.727 59.5455C193.394 59.5455 194.871 59.2121 196.159 58.5455C197.462 57.8788 198.485 56.947 199.227 55.75C199.97 54.553 200.348 53.1515 200.364 51.5455C200.348 49.9697 199.977 48.5985 199.25 47.4318C198.523 46.25 197.515 45.3409 196.227 44.7045C194.939 44.053 193.439 43.7273 191.727 43.7273C189.985 43.7273 188.462 44.053 187.159 44.7045C185.856 45.3409 184.848 46.25 184.136 47.4318C183.424 48.5985 183.076 49.9697 183.091 51.5455C183.076 53.1515 183.432 54.553 184.159 55.75C184.902 56.947 185.924 57.8788 187.227 58.5455C188.53 59.2121 190.03 59.5455 191.727 59.5455Z" fill="black"/>
</g>
<defs>
<filter id="filter0_d_48_6" x="6" y="0" width="376.291" height="135.525" filterUnits="userSpaceOnUse" color-interpolation-filters="sRGB">
<feFlood flood-opacity="0" result="BackgroundImageFix"/>
<feColorMatrix in="SourceAlpha" type="matrix" values="0 0 0 0 0 0 0 0 0 0 0 0 0 0 0 0 0 0 127 0" result="hardAlpha"/>
<feOffset dx="10" dy="10"/>
<feGaussianBlur stdDeviation="2"/>
<feComposite in2="hardAlpha" operator="out"/>
<feColorMatrix type="matrix" values="0 0 0 0 0 0 0 0 0 0 0 0 0 0 0 0 0 0 0.25 0"/>
<feBlend mode="normal" in2="BackgroundImageFix" result="effect1_dropShadow_48_6"/>
<feBlend mode="normal" in="SourceGraphic" in2="effect1_dropShadow_48_6" result="shape"/>
</filter>
<filter id="filter1_d_48_6" x="0" y="0" width="374.291" height="137.525" filterUnits="userSpaceOnUse" color-interpolation-filters="sRGB">
<feFlood flood-opacity="0" result="BackgroundImageFix"/>
<feColorMatrix in="SourceAlpha" type="matrix" values="0 0 0 0 0 0 0 0 0 0 0 0 0 0 0 0 0 0 127 0" result="hardAlpha"/>
<feOffset dy="10"/>
<feGaussianBlur stdDeviation="3"/>
<feComposite in2="hardAlpha" operator="out"/>
<feColorMatrix type="matrix" values="0 0 0 0 0 0 0 0 0 0 0 0 0 0 0 0 0 0 0.25 0"/>
<feBlend mode="normal" in2="BackgroundImageFix" result="effect1_dropShadow_48_6"/>
<feBlend mode="normal" in="SourceGraphic" in2="effect1_dropShadow_48_6" result="shape"/>
</filter>
<linearGradient id="paint0_linear_48_6" x1="6" y1="60.7625" x2="368.291" y2="60.7625" gradientUnits="userSpaceOnUse">
<stop stop-color="#F0CB6C"/>
<stop offset="0.515" stop-color="#F2E5C2"/>
<stop offset="1" stop-color="#F0CB6C"/>
</linearGradient>
</defs>
</svg>
