<svg width="383" height="138" viewBox="0 0 383 138" fill="none" xmlns="http://www.w3.org/2000/svg">
<g filter="url(#filter0_d_48_6)">
<g filter="url(#filter1_d_48_6)">
<rect x="6" width="362.291" height="121.525" rx="60.7625" fill="url(#paint0_linear_48_6)"/>
</g>
<path d="M191.364 86.6364C188.697 86.6364 186.295 86.1061 184.159 85.0455C182.023 83.9848 180.311 82.5303 179.023 80.6818C177.735 78.8333 177.03 76.7273 176.909 74.3636H182.364C182.576 76.4697 183.53 78.2121 185.227 79.5909C186.939 80.9545 188.985 81.6364 191.364 81.6364C193.273 81.6364 194.97 81.1894 196.455 80.2955C197.955 79.4015 199.129 78.1742 199.977 76.6136C200.841 75.0379 201.273 73.2576 201.273 71.2727C201.273 69.2424 200.826 67.4318 199.932 65.8409C199.053 64.2348 197.841 62.9697 196.295 62.0455C194.75 61.1212 192.985 60.6515 191 60.6364C189.576 60.6212 188.114 60.8409 186.614 61.2955C185.114 61.7348 183.879 62.303 182.909 63L177.636 62.3636L180.455 39.4545H204.636V44.4545H185.182L183.545 58.1818H183.818C184.773 57.4242 185.97 56.7955 187.409 56.2955C188.848 55.7955 190.348 55.5455 191.909 55.5455C194.758 55.5455 197.295 56.2273 199.523 57.5909C201.765 58.9394 203.523 60.7879 204.795 63.1364C206.083 65.4848 206.727 68.1667 206.727 71.1818C206.727 74.1515 206.061 76.803 204.727 79.1364C203.409 81.4545 201.591 83.2879 199.273 84.6364C196.955 85.9697 194.318 86.6364 191.364 86.6364Z" fill="black"/>
</g>
<defs>
<filter id="filter0_d_48_6" x="6" y="0" width="376.291" height="135.525" filterUnits="userSpaceOnUse" color-interpolation-filters="sRGB">
<feFlood flood-opacity="0" result="BackgroundImageFix"/>
<feColorMatrix in="SourceAlpha" type="matrix" values="0 0 0 0 0 0 0 0 0 0 0 0 0 0 0 0 0 0 127 0" result="hardAlpha"/>
<feOffset dx="10" dy="10"/>
<feGaussianBlur stdDeviation="2"/>
<feComposite in2="hardAlpha" operator="out"/>
<feColorMatrix type="matrix" values="0 0 0 0 0 0 0 0 0 0 0 0 0 0 0 0 0 0 0.25 0"/>
<feBlend mode="normal" in2="BackgroundImageFix" result="effect1_dropShadow_48_6"/>
<feBlend mode="normal" in="SourceGraphic" in2="effect1_dropShadow_48_6" result="shape"/>
</filter>
<filter id="filter1_d_48_6" x="0" y="0" width="374.291" height="137.525" filterUnits="userSpaceOnUse" color-interpolation-filters="sRGB">
<feFlood flood-opacity="0" result="BackgroundImageFix"/>
<feColorMatrix in="SourceAlpha" type="matrix" values="0 0 0 0 0 0 0 0 0 0 0 0 0 0 0 0 0 0 127 0" result="hardAlpha"/>
<feOffset dy="10"/>
<feGaussianBlur stdDeviation="3"/>
<feComposite in2="hardAlpha" operator="out"/>
<feColorMatrix type="matrix" values="0 0 0 0 0 0 0 0 0 0 0 0 0 0 0 0 0 0 0.25 0"/>
<feBlend mode="normal" in2="BackgroundImageFix" result="effect1_dropShadow_48_6"/>
<feBlend mode="normal" in="SourceGraphic" in2="effect1_dropShadow_48_6" result="shape"/>
</filter>
<linearGradient id="paint0_linear_48_6" x1="6" y1="60.7625" x2="368.291" y2="60.7625" gradientUnits="userSpaceOnUse">
<stop stop-color="#F0CB6C"/>
<stop offset="0.515" stop-color="#F2E5C2"/>
<stop offset="1" stop-color="#F0CB6C"/>
</linearGradient>
</defs>
</svg>
