<svg width="554" height="682" viewBox="0 0 554 682" fill="none" xmlns="http://www.w3.org/2000/svg">
<path d="M245.334 0.699951C230.134 2.96661 217.734 7.7666 205.867 15.7666C199.734 19.9 197.867 20.4333 187.2 21.2333C165.6 22.7 147.334 30.8333 132 46.1666C116.8 61.3666 108.4 79.7667 107.067 100.833C105.6 123.5 111.334 163.233 121.467 200.167C126.134 217.633 127.067 222.833 128 241.233C130 279.1 134 295.767 147.467 322.433C154.267 336.033 160.8 345.233 172.134 357.367L182 367.9L181.467 377.367C181.334 382.567 180.934 386.967 180.8 387.233C180.534 387.367 178.534 386.567 176.267 385.367C168.934 381.767 164.667 383.767 157.734 394.3C153.6 400.433 150.8 403.5 149.067 403.5C143.867 403.5 75.0668 426.3 64.6668 431.5C42.6668 442.3 28.5335 457.233 15.8668 482.833C1.33351 512.3 -0.266492 524.833 0.266841 596.833L0.666841 649.5L4.13351 656.967C8.53351 666.433 15.7335 673.633 25.2002 678.033L32.6668 681.5H277.333H522L529.467 678.033C538.934 673.633 546.134 666.433 550.534 656.967L554 649.5V589.5C554 535.9 553.734 528.3 551.467 518.167C548.267 503.1 544 491.9 536.534 477.9C524.8 456.033 510.134 441.367 490 431.5C479.6 426.3 410.8 403.5 405.6 403.5C403.867 403.5 401.067 400.433 396.934 394.3C390 383.767 385.734 381.767 378.4 385.367C376.134 386.567 374.134 387.367 373.867 387.233C373.734 386.967 373.334 382.567 373.2 377.367L372.667 367.767L382.8 357.233C399.2 340.167 410.267 321.367 418 297.5C424.267 278.3 426.667 260.433 426.667 231.9C426.667 209.233 426.8 207.5 430.667 195.367C442 159.1 446.934 127.5 447.067 90.1666C447.2 59.4999 445.467 46.7 439.2 32.8333C434 21.1 433.6 20.9666 412.8 21.7667C392.134 22.7 382.534 21.3666 337.334 11.2333C320.8 7.6333 302.267 3.7666 296 2.69995C281.867 0.299988 255.067 -0.633362 245.334 0.699951ZM286 22.8333C293.334 23.7667 313.2 27.7667 330 31.4999C372.934 41.1 388.4 43.4999 406 43.4999H421.067L422.534 49.1C423.334 52.3 424.667 61.9 425.6 70.4333C427.334 87.9 425.734 118.567 422 140.167C419.2 156.567 413.334 180.833 412.267 180.833C411.734 180.7 406.667 173.9 400.934 165.5C393.734 154.833 389.6 149.9 387.334 149.367C385.467 148.967 379.334 149.767 373.6 151.367C339.067 160.567 297.867 160.433 261.467 150.7C236.267 144.033 209.2 131.1 186 114.7C179.467 110.033 172.934 106.167 171.734 106.167C163.867 106.167 158.4 113.767 161.334 120.833C165.067 129.767 214.267 158.167 240.667 166.567C273.2 176.967 284.534 178.7 319.334 178.833C345.334 178.833 350.534 178.433 364.267 175.633C372.934 173.9 380.134 172.7 380.4 172.967C380.667 173.233 386.4 181.5 393.067 191.233L405.334 208.967V232.567C405.334 267.5 401.467 287.367 390.267 309.5C382.667 324.7 375.6 334.7 364.134 346.3C347.467 362.967 329.2 373.633 306.534 379.767C291.734 383.767 264.134 384.033 250 380.3C204.134 368.167 169.2 333.1 155.334 285.5C148.934 263.367 147.867 231.767 152.8 212.433C155.467 201.767 165.067 182.033 172 172.967C175.067 169.1 178.134 164.433 178.8 162.567C181.467 155.5 173.067 146.967 165.867 149.5C161.6 151.1 150.134 165.5 143.734 177.367L139.467 185.5L137.067 175.5C130.267 146.167 126.8 111.633 129.2 96.5667C135.067 60.1666 169.867 36.1666 205.334 44.1666C221.334 47.7667 222.667 47.9 226 46.1666C230.934 43.4999 232.267 37.9 229.467 32.4333L227.2 27.9L233.867 25.6333C249.2 20.5667 264.534 19.7667 286 22.8333ZM236.667 398.567C272 409.5 310.934 405.633 343.734 387.767L352.134 383.233L351.734 392.3L351.334 401.367L315.334 423.1C295.6 434.967 278.4 444.7 277.333 444.7C276.267 444.7 259.2 434.967 239.334 423.1L203.334 401.367L202.934 392.433L202.534 383.367L214.267 389.233C220.667 392.567 230.8 396.7 236.667 398.567ZM216.667 434.167C250.667 454.567 257.334 458.967 255.334 460.167C254 460.833 250.934 462.833 248.534 464.433L244 467.367L209.6 454.567L175.334 441.767L169.467 434.433C166.267 430.433 163.6 426.433 163.6 425.633C163.6 423.5 173.6 408.7 174.667 409.1C175.2 409.367 194.134 420.567 216.667 434.167ZM386.534 417.233C389.467 421.9 392 426.167 392 426.7C392 427.233 390 430.967 387.734 434.967C384.934 439.5 382.534 442.167 380.934 442.167C379.6 442.167 363.2 447.9 344.534 454.833L310.667 467.5L306.134 464.433C303.734 462.833 300.667 460.833 299.334 460.167C297.334 458.967 304 454.567 338.134 433.9C360.8 420.3 379.734 408.967 380.134 408.967C380.667 408.833 383.467 412.567 386.534 417.233ZM140 430.033C140 430.7 143.334 435.367 147.334 440.567L154.534 449.767L152 454.967C149.467 459.633 149.334 462.967 149.334 500.167C149.334 536.167 149.6 540.7 151.867 545.633C154.8 552.167 159.867 556.3 166.934 558.3C174 560.167 175.467 559.767 212.134 545.9L243.734 534.033L248.667 537.5C255.867 542.3 261.6 543.5 277.333 543.5C293.067 543.5 298.8 542.3 306 537.5L310.934 534.033L342.534 545.9C379.2 559.767 380.667 560.167 387.734 558.3C394.8 556.3 399.867 552.167 402.8 545.633C405.067 540.7 405.334 536.3 405.334 501.9C405.334 476.833 404.8 461.5 403.734 457.767C402.267 452.033 402.4 451.633 408.4 441.633C411.867 436.033 414.667 430.833 414.667 430.167C414.667 428.033 416.667 428.567 436.934 435.1C447.734 438.567 455.867 441.9 455.6 442.7C455.334 443.5 437.467 492.967 415.867 552.433L376.667 660.833H277.333H178L138.8 552.433C117.2 492.967 99.3335 443.5 99.0668 442.7C98.8002 441.9 106.667 438.567 116.934 435.233C136 428.833 140 428.033 140 430.033ZM116 552.3C136.667 609.233 154 656.967 154.267 658.3C154.934 660.7 153.2 660.833 109.467 660.833H64.0002V558.433V455.9L70.4002 452.433C73.8668 450.433 77.0668 448.833 77.4668 448.833C77.8668 448.833 95.2002 495.367 116 552.3ZM484.134 452.433L490.667 455.9V558.433V660.833H445.2C401.467 660.833 399.734 660.7 400.4 658.3C401.734 652.833 476.4 448.833 477.067 448.833C477.334 448.833 480.534 450.433 484.134 452.433ZM204.534 475.5C222 482.033 234.667 487.5 234.667 488.433C234.667 489.767 231.334 490.167 222.4 490.167C209.6 490.3 207.067 491.1 204.267 496.433C201.867 500.967 202.4 504.167 206.134 508.033C209.467 511.233 210.534 511.5 222.134 511.5C231.334 511.5 234.667 511.9 234.667 513.1C234.667 514.967 173.467 538.3 171.734 537.233C170.4 536.567 170.267 465.633 171.6 464.3C172.134 463.9 172.934 463.633 173.467 463.767C173.867 464.033 187.867 469.233 204.534 475.5ZM383.734 500.167C383.867 519.9 383.6 536.433 383.067 536.967C381.467 538.433 320 515.1 320 513.1C320 511.9 323.334 511.5 332.4 511.5C343.067 511.5 345.2 511.1 347.734 508.833C351.467 505.233 352.667 500.567 350.534 496.567C347.6 491.1 345.2 490.3 332.4 490.167C323.334 490.167 320 489.767 320 488.433C320 486.833 379.334 463.5 382 464.033C382.8 464.3 383.467 477.767 383.734 500.167ZM42.6668 570.3V661.1L38.4002 660.3C32.6668 659.233 26.1335 653.9 23.4668 648.433C21.6002 644.3 21.3335 637.1 21.3335 590.433C21.3335 533.233 22.1335 522.967 28.4002 505.9C31.3335 497.767 40.8002 479.5 42.0002 479.5C42.4002 479.5 42.6668 520.433 42.6668 570.3ZM295.334 482.967C298.4 486.3 298.667 487.633 298.667 499.633C298.667 520.167 296.667 522.167 277.333 522.167C258 522.167 256 520.167 256 499.633C256 487.633 256.267 486.3 259.334 482.967C262.4 479.633 263.067 479.5 277.333 479.5C291.6 479.5 292.267 479.633 295.334 482.967ZM521.467 494.833C532.134 516.433 532.4 519.367 533.067 585.1C533.467 637.9 533.333 643.9 531.2 648.167C528.534 653.9 522 659.1 516.267 660.3L512 661.1V570.033C512.134 468.033 511.334 474.3 521.467 494.833Z" fill="url(#paint0_linear_1070_140)"/>
<defs>
<linearGradient id="paint0_linear_1070_140" x1="0.181641" y1="340.795" x2="554" y2="340.795" gradientUnits="userSpaceOnUse">
<stop stop-color="#FFCF43"/>
<stop offset="0.5" stop-color="#FFEBB1"/>
<stop offset="1" stop-color="#FFCF43"/>
</linearGradient>
</defs>
</svg>
