<svg width="472" height="439" viewBox="0 0 472 439" fill="none" xmlns="http://www.w3.org/2000/svg">
<path d="M313.933 1.40016H307.533L235 27.0002L162.472 1.40016C149.672 -2.8665 134.744 5.67217 132.605 20.6002V73.9335C132.605 88.8562 145.405 99.5335 158.205 99.5335H164.605L235.005 67.5335L307.528 99.5335C322.461 103.8 335.261 95.2562 339.528 80.3335V27.0002C339.528 12.0722 326.733 1.40016 313.933 1.40016ZM198.728 404.6L102.728 84.6002C96.3281 71.8002 83.5281 65.4002 68.6001 69.6722L36.6001 80.3442C25.9281 82.4775 19.5281 93.1442 19.5281 103.816L0.328125 411.016C0.328125 425.949 11.0001 436.616 23.8001 438.75H173.128C188.056 438.75 198.728 428.072 198.728 413.15C200.856 411.016 198.728 406.728 198.728 404.6ZM450.472 103.8C450.472 93.1335 444.072 84.6002 433.405 80.3335L401.405 67.5335C388.605 63.2562 373.672 69.6562 369.405 82.4562L273.405 402.456C269.128 415.256 277.672 430.19 290.472 434.456C292.605 434.456 294.744 436.589 299.005 436.589H446.205C461.128 436.589 471.805 425.912 471.805 410.99L450.472 103.8Z" fill="url(#paint0_linear_1066_91)"/>
<defs>
<linearGradient id="paint0_linear_1066_91" x1="471.805" y1="219.526" x2="0.328125" y2="219.526" gradientUnits="userSpaceOnUse">
<stop stop-color="#FFCF43"/>
<stop offset="0.5" stop-color="#FFEBB1"/>
<stop offset="1" stop-color="#FFCF43"/>
</linearGradient>
</defs>
</svg>
