<svg width="430" height="456" viewBox="0 0 430 456" fill="none" xmlns="http://www.w3.org/2000/svg">
<path d="M188.216 456H54.0639C39.2639 456 27.2879 444 27.2879 429.216V268.288C12.4879 268.288 0.503906 256.288 0.503906 241.504V187.728C0.503906 172.928 12.5039 160.944 27.2879 160.944H188.216V456ZM402.712 160.928H241.776V456H375.92C390.72 456 402.712 444 402.712 429.216V268.288C417.512 268.288 429.496 256.288 429.496 241.504V187.728C429.496 172.928 417.496 160.944 402.712 160.944V160.928ZM322.336 0C263.048 0 215 48.064 215 107.344H322.336C337.136 107.344 349.128 95.344 349.128 80.56V26.784C349.128 11.984 337.128 0 322.336 0ZM107.648 0C92.8479 0 80.8719 12 80.8719 26.784V80.56C80.8719 95.36 92.8719 107.344 107.648 107.344H215C215 48.048 166.928 0 107.648 0Z" fill="url(#paint0_linear_1066_96)"/>
<defs>
<linearGradient id="paint0_linear_1066_96" x1="429.496" y1="228" x2="0.503906" y2="228" gradientUnits="userSpaceOnUse">
<stop stop-color="#FFCF43"/>
<stop offset="0.5" stop-color="#FFEBB1"/>
<stop offset="1" stop-color="#FFCF43"/>
</linearGradient>
</defs>
</svg>
