<svg width="39" height="56" viewBox="0 0 39 56" fill="none" xmlns="http://www.w3.org/2000/svg">
<path d="M1.77383 46.2732C2.36735 41.8063 4.18542 37.4262 6.9618 34.2018C9.73291 30.9836 13.4416 28.9315 17.8505 29.0442C28.7823 29.3236 36.9395 38.8593 37.7246 49.8805L38.1126 55.3271H0.570859L1.77383 46.2732Z" fill="url(#paint0_linear_50_44)" stroke="black"/>
<path d="M29.959 13.7202C31.4206 2.52326 25.1605 0 19.2411 0C13.8083 0 8.63565 2.39117 8.44973 11.197C10.2605 10.3033 14.077 8.20059 14.8565 6.93896C15.8308 5.36192 19.0787 10.093 25.2496 8.8314C31.4206 7.56977 27.1984 13.0894 29.959 13.7202Z" fill="black"/>
<path d="M8.44973 11.197C8.43308 11.9856 8.45643 12.8257 8.52318 13.7202C9.20166 18.3665 10.7181 21.4477 12.342 24.1069C14.0458 25.8765 16.6123 26.8096 19.2411 26.8096C22.0304 26.8096 24.1567 25.9692 25.8206 24.1069C27.2821 21.4477 28.9729 18.6404 29.959 13.7202C27.1984 13.0894 31.4206 7.56977 25.2496 8.8314C19.0787 10.093 15.8308 5.36192 14.8565 6.93896C14.077 8.20059 10.2605 10.3033 8.44973 11.197Z" fill="black"/>
<path d="M8.44973 11.197C8.43308 11.9856 8.45643 12.8257 8.52318 13.7202C9.20166 18.3665 10.7181 21.4477 12.342 24.1069C14.0458 25.8765 16.6123 26.8096 19.2411 26.8096C22.0304 26.8096 24.1567 25.9692 25.8206 24.1069C27.2821 21.4477 28.9729 18.6404 29.959 13.7202C27.1984 13.0894 31.4206 7.56977 25.2496 8.8314C19.0787 10.093 15.8308 5.36192 14.8565 6.93896C14.077 8.20059 10.2605 10.3033 8.44973 11.197Z" fill="url(#paint1_linear_50_44)"/>
<path d="M8.94528 11.5084C9.85628 11.0489 11.132 10.3596 12.304 9.63048C12.9512 9.22782 13.5744 8.80819 14.0897 8.40438C14.5925 8.01024 15.0376 7.59699 15.2818 7.20176C15.3301 7.12369 15.3586 7.11948 15.3911 7.11545C15.4632 7.10654 15.6015 7.12227 15.8479 7.21483C16.0865 7.30446 16.37 7.44346 16.7174 7.62205C16.7899 7.65931 16.865 7.69819 16.9425 7.73834C16.9535 7.74408 16.9646 7.74984 16.9758 7.75563C17.2524 7.89899 17.5586 8.05772 17.8859 8.21668C19.6369 9.06689 22.1104 9.98354 25.3498 9.32127C26.8685 9.01077 27.5826 9.15898 27.9197 9.38792C28.2257 9.59583 28.3546 9.96697 28.3837 10.5895C28.3949 10.8279 28.3908 11.0719 28.3864 11.3323C28.3851 11.4059 28.3839 11.4808 28.3829 11.5573C28.3788 11.8905 28.3809 12.2505 28.432 12.5877C28.4832 12.9259 28.5889 13.2809 28.821 13.5823C28.9691 13.7747 29.1561 13.9289 29.3816 14.0427C28.4758 18.2764 27.0387 20.8726 25.7043 23.2833C25.6056 23.4615 25.5076 23.6387 25.4103 23.8155C23.8629 25.5247 21.8925 26.3096 19.2411 26.3096C16.7412 26.3096 14.3328 25.4281 12.7398 23.7989C11.1525 21.1925 9.68365 18.1887 9.02048 13.6654C8.96421 12.9054 8.93997 12.187 8.94528 11.5084ZM11.7757 8.78141C10.8305 9.36948 9.81174 9.93324 8.98402 10.3646C9.21772 6.55395 10.4691 4.15202 12.2019 2.67706C14.0722 1.08513 16.588 0.5 19.2411 0.5C22.1483 0.5 25.0365 1.12268 27.0223 3.02253C28.8943 4.81356 30.066 7.8407 29.5535 12.8797C29.4942 12.7706 29.4493 12.627 29.4207 12.4379C29.383 12.1887 29.3787 11.9005 29.3828 11.5697C29.3837 11.5041 29.3848 11.4365 29.386 11.3674C29.3905 11.1025 29.3954 10.8163 29.3826 10.5428C29.3509 9.86426 29.2057 9.05262 28.4816 8.56072C27.7884 8.08985 26.7162 8.02122 25.1495 8.34153C22.2179 8.94088 19.982 8.1228 18.3227 7.31712C18.0083 7.16444 17.7186 7.0143 17.4445 6.87217C17.3529 6.82471 17.2631 6.77814 17.1746 6.73267C16.8293 6.5552 16.4988 6.39111 16.1995 6.27869C15.908 6.16918 15.5845 6.08389 15.2683 6.12302C14.9126 6.16705 14.6265 6.35996 14.4311 6.67615C14.2856 6.91174 13.9613 7.23444 13.4728 7.61732C12.9966 7.99052 12.4064 8.38898 11.7757 8.78141Z" stroke="black"/>
<path d="M23.6246 26.2537L23.9424 28.6204L19.3702 28.2041L19.3329 28.2007L19.2955 28.2029L14.5751 28.4807L14.9942 26.242C15.2527 26.3403 15.5859 26.459 15.97 26.5777C16.8844 26.8602 18.1163 27.1519 19.3249 27.1519C20.5334 27.1519 21.7653 26.8602 22.6797 26.5777C23.0487 26.4636 23.3707 26.3496 23.6246 26.2537Z" fill="url(#paint2_linear_50_44)" stroke="black"/>
<path d="M12.0139 13.9539C11.9659 13.5065 12.3165 13.1163 12.7664 13.1163H16.4644C16.9143 13.1163 17.2649 13.5065 17.2169 13.9539L17.1408 14.6637C17.0653 15.3675 16.4713 15.9012 15.7634 15.9012H13.4674C12.7595 15.9012 12.1655 15.3675 12.09 14.6637L12.0139 13.9539Z" fill="url(#paint3_linear_50_44)" stroke="black"/>
<path d="M21.4326 13.9539C21.3846 13.5065 21.7352 13.1163 22.1851 13.1163H25.8831C26.333 13.1163 26.6836 13.5065 26.6356 13.9539L26.5595 14.6637C26.484 15.3675 25.89 15.9012 25.1821 15.9012H22.8861C22.1782 15.9012 21.5842 15.3675 21.5087 14.6637L21.4326 13.9539Z" fill="url(#paint4_linear_50_44)" stroke="black"/>
<rect x="17.5385" y="13.5625" width="3.57264" height="0.630814" fill="black"/>
<rect x="8.7693" y="13.5625" width="2.92307" height="0.630814" fill="black"/>
<rect x="26.9573" y="13.5625" width="2.92307" height="0.630814" fill="black"/>
<path d="M7.47017 31.2254L10.5556 29.6484L14.1283 29.0176C14.1283 29.0176 14.1283 43.8417 19.1625 43.8417C24.1966 43.8417 23.7095 29.0176 23.7095 29.0176L27.2821 29.6484L30.8548 31.2254V55.5118H7.47017V31.2254Z" fill="black"/>
<ellipse cx="19.1624" cy="34.0639" rx="0.649572" ry="0.630814" fill="black"/>
<ellipse cx="19.1624" cy="30.9099" rx="0.649572" ry="0.630814" fill="black"/>
<ellipse cx="19.1624" cy="37.2181" rx="0.649572" ry="0.630814" fill="black"/>
<ellipse cx="19.1624" cy="43.5262" rx="0.649572" ry="0.630814" fill="black"/>
<ellipse cx="19.1624" cy="40.3723" rx="0.649572" ry="0.630814" fill="black"/>
<path d="M16.1645 28.0641C16.1645 27.898 16.316 27.7731 16.4791 27.8047L19.0167 28.2976C19.1129 28.3163 19.2119 28.3163 19.3081 28.2976L21.8457 27.8047C22.0088 27.7731 22.1603 27.898 22.1603 28.0641V30.6017C22.1603 30.7678 22.0088 30.8927 21.8457 30.861L19.3081 30.3681C19.2119 30.3494 19.1129 30.3494 19.0167 30.3681L16.4791 30.861C16.316 30.8927 16.1645 30.7678 16.1645 30.6017V28.0641Z" fill="black" stroke="url(#paint5_linear_50_44)" stroke-width="0.5"/>
<defs>
<linearGradient id="paint0_linear_50_44" x1="38.6495" y1="42.1827" x2="3.05176e-05" y2="42.1827" gradientUnits="userSpaceOnUse">
<stop stop-color="#FFCF43"/>
<stop offset="0.5" stop-color="#FFEBB1"/>
<stop offset="1" stop-color="#FFCF43"/>
</linearGradient>
<linearGradient id="paint1_linear_50_44" x1="19.3092" y1="0" x2="19.3092" y2="26.8096" gradientUnits="userSpaceOnUse">
<stop stop-color="#FFCF43"/>
<stop offset="0.47" stop-color="#FBE5A4"/>
<stop offset="1" stop-color="#FFCF43"/>
</linearGradient>
<linearGradient id="paint2_linear_50_44" x1="24.5214" y1="27.3616" x2="13.9659" y2="27.3616" gradientUnits="userSpaceOnUse">
<stop stop-color="#FFCF43"/>
<stop offset="0.5" stop-color="#FFE8A6"/>
<stop offset="1" stop-color="#FFCF43"/>
</linearGradient>
<linearGradient id="paint3_linear_50_44" x1="17.8633" y1="14.5088" x2="11.3675" y2="14.5088" gradientUnits="userSpaceOnUse">
<stop stop-color="#FFCF43"/>
<stop offset="0.495" stop-color="#FAECC6"/>
<stop offset="1" stop-color="#FFCF43"/>
</linearGradient>
<linearGradient id="paint4_linear_50_44" x1="27.282" y1="14.5088" x2="20.7863" y2="14.5088" gradientUnits="userSpaceOnUse">
<stop stop-color="#FFCF43"/>
<stop offset="0.495" stop-color="#FAECC6"/>
<stop offset="1" stop-color="#FFCF43"/>
</linearGradient>
<linearGradient id="paint5_linear_50_44" x1="22.4103" y1="29.3329" x2="15.9145" y2="29.3329" gradientUnits="userSpaceOnUse">
<stop stop-color="#FED253"/>
<stop offset="0.5" stop-color="#F4E2AC"/>
<stop offset="1" stop-color="#FED253"/>
</linearGradient>
</defs>
</svg>
