<svg width="39" height="56" viewBox="0 0 39 56" fill="none" xmlns="http://www.w3.org/2000/svg">
<g clip-path="url(#clip0_979_14)">
<path d="M1.77377 46.2732C2.36729 41.8063 4.18536 37.4262 6.96174 34.2018C9.73285 30.9836 13.4415 28.9315 17.8504 29.0442C28.7822 29.3236 36.9394 38.8593 37.7245 49.8805L38.1125 55.3271H0.570801L1.77377 46.2732Z" stroke="black"/>
<path d="M29.959 13.7202C31.4206 2.52326 25.1605 0 19.2411 0C13.8083 0 8.63563 2.39117 8.44971 11.197C10.2605 10.3033 14.077 8.20059 14.8565 6.93896C15.8308 5.36192 19.0787 10.093 25.2496 8.8314C31.4206 7.56977 27.1984 13.0894 29.959 13.7202Z" fill="black"/>
<path d="M32 14C35.3137 14 38 11.3137 38 8C38 4.68629 35.3137 2 32 2C28.6863 2 26 4.68629 26 8C26 11.3137 28.6863 14 32 14Z" fill="#FF0000" stroke="black"/>
<path d="M26.3793 11V6.63636H27.3018V10.2393H29.1726V11H26.3793ZM30.7061 6.63636V11H29.7836V6.63636H30.7061ZM32.2536 6.63636L33.3082 9.9517H33.3487L34.4055 6.63636H35.4283L33.924 11H32.7351L31.2287 6.63636H32.2536ZM35.9535 11V6.63636H38.8938V7.39702H36.8761V8.43679H38.7425V9.19744H36.8761V10.2393H38.9023V11H35.9535Z" fill="white"/>
<path d="M7 33.0833L10.0347 31.5952L13.5 30C13.5 30 13.5486 44.9881 18.5 44.9881C23.4513 44.9881 23 30.5 23 30.5L26.4861 31.5952L30 33.0833V56H7V33.0833Z" fill="black"/>
<path d="M11.0044 12.8376C10.9564 12.3902 11.307 12 11.7569 12H15.4549C15.9048 12 16.2554 12.3902 16.2074 12.8376L16.1313 13.5474C16.0558 14.2512 15.4618 14.7849 14.7539 14.7849H12.4579C11.75 14.7849 11.156 14.2512 11.0805 13.5474L11.0044 12.8376Z" stroke="black"/>
<path d="M20.6631 12.8376C20.6151 12.3902 20.9657 12 21.4156 12H25.1136C25.5635 12 25.9141 12.3902 25.8661 12.8376L25.79 13.5474C25.7145 14.2512 25.1205 14.7849 24.4126 14.7849H22.1166C21.4087 14.7849 20.8147 14.2512 20.7392 13.5474L20.6631 12.8376Z" stroke="black"/>
<path d="M20.3417 12.4463H16.769V13.0771H20.3417V12.4463Z" fill="black"/>
<path d="M10.9231 12.4463H8V13.0771H10.9231V12.4463Z" fill="black"/>
<path d="M29.1111 12.4463H26.188V13.0771H29.1111V12.4463Z" fill="black"/>
</g>
<defs>
<clipPath id="clip0_979_14">
<rect width="39" height="56" fill="white"/>
</clipPath>
</defs>
</svg>
