<svg width="275" height="82" viewBox="0 0 275 82" fill="none" xmlns="http://www.w3.org/2000/svg">
<path d="M49.1635 23.9928C49.1635 27.5315 49.4814 30.3791 50.1173 32.5355C50.7531 34.6643 51.7899 36.2263 53.2275 37.2216C54.6927 38.2168 56.6556 38.7145 59.1161 38.7145H60.4432V28.513H56.3377V27.2689H67.6588V38.1754C67.0506 38.2859 66.318 38.4518 65.461 38.673C64.6316 38.8665 63.9957 39.0186 63.5534 39.1291C61.7287 39.5991 60.2635 39.9447 59.1576 40.1659C58.0794 40.3871 57.0703 40.4976 56.1303 40.4976C53.1722 40.4976 50.4905 40 48.0853 39.0047C45.6801 37.9818 43.731 36.3231 42.2381 34.0284C40.7728 31.7338 40.0402 28.748 40.0402 25.071C40.0402 20.067 41.5469 16.3901 44.5604 14.0402C47.5738 11.6626 51.5411 10.4738 56.4621 10.4738C58.5079 10.4738 60.4846 10.6535 62.3922 11.0129C64.3275 11.3723 65.8342 11.8146 66.9124 12.3399L66.3318 19.4726H65.1707C64.3966 17.1227 63.3322 15.2428 61.9775 13.8328C60.6505 12.3952 58.8259 11.6764 56.5036 11.6764C53.8772 11.6764 51.9972 12.7131 50.8637 14.7866C49.7302 16.8324 49.1635 19.9012 49.1635 23.9928ZM87.8975 39.1706L89.6807 39.0047C90.0678 38.9494 90.2613 38.7974 90.2613 38.5486C90.2613 38.4103 90.2198 38.2445 90.1369 38.0509L87.3999 31.9964H77.779L75.2908 38.0509C75.2079 38.2445 75.1664 38.4103 75.1664 38.5486C75.1664 38.7974 75.3599 38.9494 75.747 39.0047L77.5302 39.1706V40H71.2268V39.1706L72.7612 39.0047C73.093 38.9771 73.3279 38.8942 73.4662 38.7559C73.6044 38.6177 73.7565 38.3689 73.9223 38.0095L85.4094 10.5153H86.7364L98.8869 38.0095C99.0528 38.3689 99.2049 38.6177 99.3431 38.7559C99.4813 38.8942 99.7163 38.9771 100.048 39.0047L101.582 39.1706V40H87.8975V39.1706ZM86.8608 30.7523L82.3821 20.8411L78.2766 30.7523H86.8608ZM107.246 37.968C107.246 38.2721 107.302 38.4795 107.412 38.59C107.55 38.673 107.813 38.7559 108.2 38.8389L109.693 39.1706V40H103.39V39.1706L104.924 38.8389C105.339 38.7559 105.601 38.6592 105.712 38.5486C105.85 38.438 105.919 38.2306 105.919 37.9265V13.0449C105.919 12.7408 105.85 12.5334 105.712 12.4228C105.601 12.3123 105.339 12.2155 104.924 12.1326L103.39 11.8008V10.9714H114.006L122.548 29.4253L130.179 10.9714H141.127V11.8008L139.592 12.1326C139.178 12.2155 138.901 12.3123 138.763 12.4228C138.652 12.5334 138.597 12.7408 138.597 13.0449V37.9265C138.597 38.2306 138.652 38.438 138.763 38.5486C138.901 38.6592 139.178 38.7559 139.592 38.8389L141.127 39.1706V40H127.691V39.1706L129.184 38.8389C129.571 38.7559 129.819 38.673 129.93 38.59C130.068 38.4795 130.137 38.2721 130.137 37.968V14.4963L119.604 40H118.36L107.246 15.5745V37.968ZM156.011 10.9714C159.356 10.9714 161.996 11.1926 163.931 11.6349C165.894 12.0773 167.304 12.7822 168.161 13.7499C169.046 14.7175 169.488 16.0307 169.488 17.6895C169.488 19.9012 168.825 21.5323 167.498 22.5829C166.171 23.6334 164.056 24.3107 161.153 24.6149C163.531 24.8084 165.438 25.1816 166.876 25.7345C168.313 26.2875 169.364 27.103 170.027 28.1812C170.719 29.2318 171.064 30.6279 171.064 32.3696C171.064 34.3049 170.539 35.8254 169.488 36.9313C168.438 38.0371 166.807 38.825 164.595 39.295C162.411 39.765 159.467 40 155.762 40H143.28V39.1706L144.814 38.8389C145.229 38.7559 145.491 38.6592 145.602 38.5486C145.74 38.438 145.809 38.2306 145.809 37.9265V13.0449C145.809 12.7408 145.74 12.5334 145.602 12.4228C145.491 12.3123 145.229 12.2155 144.814 12.1326L143.28 11.8008V10.9714H156.011ZM156.301 24.0758C158.015 24.0758 159.287 23.5505 160.116 22.4999C160.946 21.4494 161.36 19.8459 161.36 17.6895C161.36 15.8372 160.946 14.4687 160.116 13.584C159.314 12.6717 158.043 12.2155 156.301 12.2155H154.269V24.0758H156.301ZM154.269 38.7559H156.135C160.393 38.7559 162.521 36.6272 162.521 32.3696C162.521 29.8815 162.079 28.0845 161.194 26.9786C160.31 25.8728 158.734 25.3198 156.467 25.3198H154.269V38.7559ZM176.506 13.0449C176.506 12.7408 176.437 12.5334 176.299 12.4228C176.188 12.3123 175.926 12.2155 175.511 12.1326L173.977 11.8008V10.9714H187.745V11.8008L185.961 12.174C185.547 12.257 185.27 12.3537 185.132 12.4643C185.021 12.5749 184.966 12.7822 184.966 13.0864V38.7559H190.191C191.822 38.7559 193.094 38.5071 194.006 38.0095C194.919 37.5118 195.624 36.8069 196.121 35.8945C196.647 34.9822 197.227 33.5999 197.863 31.7476H199.024V40H173.977V39.1706L175.511 38.8389C175.926 38.7559 176.188 38.6592 176.299 38.5486C176.437 38.438 176.506 38.2306 176.506 37.9265V13.0449ZM203.211 38.8389C203.626 38.7559 203.889 38.6592 203.999 38.5486C204.137 38.438 204.207 38.2306 204.207 37.9265V13.0449C204.207 12.7408 204.137 12.5334 203.999 12.4228C203.889 12.3123 203.626 12.2155 203.211 12.1326L201.677 11.8008V10.9714H227.222V19.058H226.185C225.605 17.2609 225.052 15.9063 224.527 14.9939C224.029 14.0816 223.324 13.3905 222.412 12.9205C221.499 12.4505 220.214 12.2155 218.555 12.2155H212.666V24.5319H223.365V25.776H212.666V38.7559H218.97C220.601 38.7559 221.886 38.5071 222.826 38.0095C223.766 37.5118 224.499 36.793 225.024 35.8531C225.577 34.9131 226.144 33.5446 226.725 31.7476H227.803V40H201.677V39.1706L203.211 38.8389Z" fill="url(#paint0_linear_33_370)"/>
<path d="M95.786 66.1489C96.6663 66.1489 97.4586 66.0049 98.1628 65.7168C98.8831 65.4287 99.5634 65.0285 100.204 64.5164L100.684 65.0445C99.9795 65.7008 99.0592 66.253 97.9228 66.7011C96.8024 67.1333 95.5619 67.3494 94.2014 67.3494C91.5125 67.3494 89.3037 66.6451 87.5751 65.2366C85.8464 63.8121 84.9821 61.5393 84.9821 58.4182C84.9821 55.5211 85.8384 53.3924 87.551 52.0319C89.2797 50.6554 91.5365 49.9671 94.3215 49.9671C95.4419 49.9671 96.5463 50.0712 97.6347 50.2792C98.723 50.4873 99.5794 50.7434 100.204 51.0475L99.8675 55.177H99.1952C98.7471 53.8165 98.1388 52.7281 97.3706 51.9118C96.6183 51.0795 95.6099 50.6634 94.3455 50.6634C92.889 50.6634 91.8406 51.2636 91.2004 52.464C90.5761 53.6485 90.264 55.4251 90.264 57.7939C90.264 60.5949 90.6722 62.6917 91.4885 64.0842C92.3047 65.4607 93.7373 66.1489 95.786 66.1489ZM111.821 66.5811L112.854 66.4851C113.078 66.453 113.19 66.365 113.19 66.221C113.19 66.1409 113.166 66.0449 113.118 65.9329L111.533 62.4276H105.963L104.523 65.9329C104.475 66.0449 104.451 66.1409 104.451 66.221C104.451 66.365 104.563 66.453 104.787 66.4851L105.819 66.5811V67.0613H102.17V66.5811L103.058 66.4851C103.25 66.4691 103.386 66.421 103.467 66.341C103.547 66.261 103.635 66.1169 103.731 65.9089L110.381 49.9911H111.149L118.184 65.9089C118.28 66.1169 118.368 66.261 118.448 66.341C118.528 66.421 118.664 66.4691 118.856 66.4851L119.744 66.5811V67.0613H111.821V66.5811ZM111.221 61.7073L108.628 55.9693L106.251 61.7073H111.221ZM127.729 66.7011C128.769 66.7011 129.578 66.5011 130.154 66.1009C130.73 65.7008 131.018 65.1246 131.018 64.3723C131.018 63.7641 130.882 63.2599 130.61 62.8598C130.354 62.4596 129.954 62.0915 129.41 61.7554C128.865 61.4192 128.065 61.0191 127.009 60.5549C125.664 59.9627 124.624 59.4425 123.888 58.9944C123.151 58.5302 122.567 57.954 122.135 57.2658C121.719 56.5615 121.511 55.6732 121.511 54.6008C121.511 53.0642 122.055 51.9118 123.143 51.1436C124.232 50.3593 125.96 49.9671 128.329 49.9671C129.386 49.9671 130.402 50.0712 131.378 50.2792C132.371 50.4873 133.203 50.7514 133.875 51.0715L133.299 54.7448H132.651C132.347 53.7685 132.027 52.9922 131.69 52.416C131.37 51.8398 130.93 51.3996 130.37 51.0955C129.81 50.7754 129.066 50.6154 128.137 50.6154C126.024 50.6154 124.968 51.3036 124.968 52.6801C124.968 53.2403 125.096 53.7045 125.352 54.0726C125.608 54.4407 125.992 54.7769 126.505 55.081C127.017 55.3691 127.865 55.8012 129.05 56.3774L129.53 56.5935C131.018 57.3138 132.115 57.898 132.819 58.3461C133.539 58.7943 134.107 59.3545 134.524 60.0267C134.94 60.683 135.148 61.5393 135.148 62.5957C135.148 64.1642 134.556 65.3487 133.371 66.1489C132.203 66.9492 130.362 67.3494 127.849 67.3494C126.841 67.3494 125.72 67.2373 124.488 67.0132C123.271 66.7892 122.327 66.5171 121.655 66.197L122.303 61.9714H122.927C123.135 63.2199 123.448 64.1882 123.864 64.8765C124.28 65.5647 124.8 66.0449 125.424 66.317C126.048 66.5731 126.817 66.7011 127.729 66.7011ZM138.623 51.4557C138.623 51.2796 138.583 51.1596 138.503 51.0955C138.439 51.0315 138.286 50.9755 138.046 50.9275L137.158 50.7354V50.2552H144.985V50.7354L144.097 50.9275C143.856 50.9755 143.696 51.0315 143.616 51.0955C143.552 51.1596 143.52 51.2796 143.52 51.4557V65.8608C143.52 66.0369 143.552 66.1569 143.616 66.221C143.696 66.285 143.856 66.341 144.097 66.389L144.985 66.5811V67.0613H137.158V66.5811L138.046 66.389C138.286 66.341 138.439 66.285 138.503 66.221C138.583 66.1569 138.623 66.0369 138.623 65.8608V51.4557ZM147.788 51.4557C147.788 51.2796 147.748 51.1596 147.668 51.0955C147.604 51.0315 147.452 50.9755 147.211 50.9275L146.323 50.7354V50.2552H152.974L160.704 60.0027V51.4317C160.704 51.2556 160.664 51.1436 160.584 51.0955C160.52 51.0315 160.376 50.9755 160.152 50.9275L159.288 50.7354V50.2552H162.937V50.7354L162.049 50.9275C161.809 50.9755 161.649 51.0315 161.569 51.0955C161.505 51.1596 161.473 51.2796 161.473 51.4557V67.0613H160.608L148.556 51.8158V65.8848C148.556 66.0609 148.588 66.1809 148.652 66.245C148.732 66.293 148.884 66.341 149.108 66.389L149.972 66.5811V67.0613H146.323V66.5811L147.211 66.389C147.452 66.341 147.604 66.285 147.668 66.221C147.748 66.1569 147.788 66.0369 147.788 65.8608V51.4557ZM173.816 49.9671C176.521 49.9671 178.682 50.6554 180.299 52.0319C181.915 53.3924 182.724 55.6012 182.724 58.6583C182.724 61.7153 181.915 63.9321 180.299 65.3086C178.682 66.6691 176.521 67.3494 173.816 67.3494C171.111 67.3494 168.951 66.6691 167.334 65.3086C165.717 63.9321 164.909 61.7153 164.909 58.6583C164.909 55.6172 165.717 53.4084 167.334 52.0319C168.967 50.6554 171.127 49.9671 173.816 49.9671ZM173.816 66.6531C174.793 66.6531 175.537 66.389 176.049 65.8608C176.577 65.3326 176.938 64.5003 177.13 63.3639C177.322 62.2275 177.418 60.659 177.418 58.6583C177.418 56.6575 177.322 55.089 177.13 53.9526C176.938 52.8162 176.577 51.9839 176.049 51.4557C175.537 50.9275 174.793 50.6634 173.816 50.6634C172.84 50.6634 172.088 50.9275 171.56 51.4557C171.047 51.9839 170.695 52.8162 170.503 53.9526C170.311 55.089 170.215 56.6575 170.215 58.6583C170.215 60.659 170.311 62.2275 170.503 63.3639C170.695 64.5003 171.047 65.3326 171.56 65.8608C172.088 66.389 172.84 66.6531 173.816 66.6531Z" fill="url(#paint1_linear_33_370)"/>
<mask id="path-3-outside-1_33_370" maskUnits="userSpaceOnUse" x="240" y="6" width="35" height="36" fill="black">
<rect fill="white" x="240" y="6" width="35" height="36"/>
<path fill-rule="evenodd" clip-rule="evenodd" d="M270.531 10.8533C267.104 7.04891 261.546 7.04891 258.118 10.8533L257.524 11.5134L256.984 10.9139C253.556 7.10952 247.998 7.10952 244.571 10.9139C241.143 14.7183 241.143 20.8864 244.571 24.6907L257.555 39.1021L269.968 25.3252L269.936 25.2903L270.531 24.6301C273.959 20.8258 273.959 14.6577 270.531 10.8533Z"/>
</mask>
<path fill-rule="evenodd" clip-rule="evenodd" d="M270.531 10.8533C267.104 7.04891 261.546 7.04891 258.118 10.8533L257.524 11.5134L256.984 10.9139C253.556 7.10952 247.998 7.10952 244.571 10.9139C241.143 14.7183 241.143 20.8864 244.571 24.6907L257.555 39.1021L269.968 25.3252L269.936 25.2903L270.531 24.6301C273.959 20.8258 273.959 14.6577 270.531 10.8533Z" fill="black"/>
<path d="M258.118 10.8533L259.081 11.7207L258.118 10.8533ZM270.531 10.8533L271.494 9.98583V9.98583L270.531 10.8533ZM257.524 11.5134L256.561 12.3809L257.524 13.4495L258.486 12.3809L257.524 11.5134ZM256.984 10.9139L257.946 10.0464V10.0464L256.984 10.9139ZM244.571 10.9139L243.608 10.0464V10.0464L244.571 10.9139ZM244.571 24.6907L245.534 23.8233L244.571 24.6907ZM257.555 39.1021L256.592 39.9695L257.555 41.0381L258.518 39.9695L257.555 39.1021ZM269.968 25.3252L270.931 26.1927L271.712 25.3252L270.931 24.4578L269.968 25.3252ZM269.936 25.2903L268.974 24.4229L268.192 25.2903L268.974 26.1578L269.936 25.2903ZM270.531 24.6301L271.494 25.4976H271.494L270.531 24.6301ZM259.081 11.7207C261.994 8.48765 266.656 8.48765 269.568 11.7207L271.494 9.98583C267.552 5.61017 261.098 5.61016 257.156 9.98583L259.081 11.7207ZM258.486 12.3809L259.081 11.7207L257.156 9.98583L256.561 10.646L258.486 12.3809ZM256.021 11.7813L256.561 12.3809L258.486 10.646L257.946 10.0464L256.021 11.7813ZM245.534 11.7813C248.446 8.54826 253.108 8.54826 256.021 11.7813L257.946 10.0464C254.004 5.67078 247.55 5.67078 243.608 10.0464L245.534 11.7813ZM245.534 23.8233C242.55 20.5119 242.55 15.0927 245.534 11.7813L243.608 10.0464C239.736 14.3438 239.736 21.2608 243.608 25.5582L245.534 23.8233ZM258.518 38.2346L245.534 23.8233L243.608 25.5582L256.592 39.9695L258.518 38.2346ZM269.005 24.4578L256.592 38.2346L258.518 39.9695L270.931 26.1927L269.005 24.4578ZM268.974 26.1578L269.005 26.1927L270.931 24.4578L270.899 24.4228L268.974 26.1578ZM269.568 23.7627L268.974 24.4229L270.899 26.1577L271.494 25.4976L269.568 23.7627ZM269.568 11.7207C272.552 15.0321 272.552 20.4513 269.568 23.7627L271.494 25.4976C275.366 21.2002 275.366 14.2832 271.494 9.98583L269.568 11.7207Z" fill="url(#paint2_linear_33_370)" mask="url(#path-3-outside-1_33_370)"/>
<mask id="path-5-outside-2_33_370" maskUnits="userSpaceOnUse" x="198.102" y="48.6652" width="35" height="34" fill="black">
<rect fill="white" x="198.102" y="48.6652" width="35" height="34"/>
<path fill-rule="evenodd" clip-rule="evenodd" d="M213.881 75.2212C214.082 74.3178 212.966 73.5463 212.096 73.8613C208.923 75.0098 205.146 74.4412 202.571 72.1555C199.143 69.1129 199.143 64.1798 202.571 61.1372L203.15 60.6231C203.158 60.6157 203.158 60.6027 203.15 60.5953C203.142 60.5879 203.142 60.5748 203.15 60.5674L214.687 50.3267C215.177 49.8911 215.916 49.8911 216.407 50.3267L228.531 61.0888C231.959 64.1314 231.959 69.0644 228.531 72.107C226.05 74.3093 222.453 74.9175 219.356 73.9317C218.413 73.6315 217.229 74.4929 217.467 75.4537C218.012 77.6572 219.645 79.4293 221.797 80.1516C222.08 80.2467 222.011 80.6652 221.713 80.6652H209.44C209.145 80.6652 209.081 80.2504 209.362 80.1611C211.641 79.4372 213.363 77.5554 213.881 75.2212Z"/>
</mask>
<path fill-rule="evenodd" clip-rule="evenodd" d="M213.881 75.2212C214.082 74.3178 212.966 73.5463 212.096 73.8613C208.923 75.0098 205.146 74.4412 202.571 72.1555C199.143 69.1129 199.143 64.1798 202.571 61.1372L203.15 60.6231C203.158 60.6157 203.158 60.6027 203.15 60.5953C203.142 60.5879 203.142 60.5748 203.15 60.5674L214.687 50.3267C215.177 49.8911 215.916 49.8911 216.407 50.3267L228.531 61.0888C231.959 64.1314 231.959 69.0644 228.531 72.107C226.05 74.3093 222.453 74.9175 219.356 73.9317C218.413 73.6315 217.229 74.4929 217.467 75.4537C218.012 77.6572 219.645 79.4293 221.797 80.1516C222.08 80.2467 222.011 80.6652 221.713 80.6652H209.44C209.145 80.6652 209.081 80.2504 209.362 80.1611C211.641 79.4372 213.363 77.5554 213.881 75.2212Z" fill="black"/>
<path d="M202.571 72.1555L203.431 71.1863L202.571 72.1555ZM202.571 61.1372L203.431 62.1064L203.431 62.1064L202.571 61.1372ZM228.531 61.0888L227.671 62.0579L228.531 61.0888ZM228.531 72.107L227.671 71.1378L228.531 72.107ZM214.687 50.3267L213.826 49.3576L214.687 50.3267ZM216.407 50.3267L215.547 51.2959L216.407 50.3267ZM203.15 60.5674L202.29 59.5982L203.15 60.5674ZM219.356 73.9317L219.749 72.6969L219.356 73.9317ZM203.15 60.6231L204.01 61.5923L203.15 60.6231ZM201.71 73.1247C204.67 75.752 208.955 76.3762 212.537 75.0798L211.655 72.6427C208.89 73.6435 205.621 73.1305 203.431 71.1863L201.71 73.1247ZM201.71 60.1681C197.702 63.7263 197.702 69.5665 201.71 73.1247L203.431 71.1863C200.584 68.6593 200.584 64.6334 203.431 62.1064L201.71 60.1681ZM202.29 59.654L201.71 60.1681L203.431 62.1064L204.01 61.5923L202.29 59.654ZM213.826 49.3576L202.29 59.5982L204.01 61.5366L215.547 51.2959L213.826 49.3576ZM229.392 60.1196L217.267 49.3576L215.547 51.2959L227.671 62.0579L229.392 60.1196ZM229.392 73.0762C233.4 69.518 233.4 63.6778 229.392 60.1196L227.671 62.0579C230.518 64.585 230.518 68.6108 227.671 71.1378L229.392 73.0762ZM218.963 75.1666C222.456 76.2783 226.539 75.6086 229.392 73.0762L227.671 71.1378C225.562 73.01 222.451 73.5568 219.749 72.6969L218.963 75.1666ZM216.209 75.7648C216.86 78.3986 218.812 80.5168 221.384 81.3802L222.209 78.9231C220.477 78.3418 219.163 76.9158 218.725 75.1427L216.209 75.7648ZM221.713 79.3693H209.44V81.9611H221.713V79.3693ZM209.755 81.3962C212.474 80.5325 214.528 78.2872 215.146 75.5023L212.616 74.9401C212.198 76.8235 210.809 78.3419 208.97 78.926L209.755 81.3962ZM221.384 81.3802C220.275 81.0079 220.543 79.3693 221.713 79.3693V81.9611C223.48 81.9611 223.884 79.4855 222.209 78.9231L221.384 81.3802ZM215.547 51.2959H215.547L217.267 49.3576C216.286 48.4863 214.808 48.4862 213.826 49.3576L215.547 51.2959ZM204.01 59.6261C204.583 60.1343 204.583 61.0285 204.01 61.5366L202.29 59.5982C201.7 60.1212 201.7 61.0414 202.29 61.5645L204.01 59.6261ZM219.749 72.6969C218.793 72.3926 217.825 72.6912 217.175 73.1958C216.519 73.7039 215.931 74.6407 216.209 75.7648L218.725 75.1427C218.731 75.1684 218.734 75.1987 218.731 75.2289C218.728 75.2581 218.721 75.2781 218.716 75.2874C218.71 75.3023 218.717 75.2798 218.763 75.2439C218.808 75.2088 218.863 75.1835 218.912 75.1726C218.959 75.162 218.974 75.1702 218.963 75.1666L219.749 72.6969ZM204.01 61.5923C204.599 61.0693 204.599 60.1491 204.01 59.6261L202.29 61.5645C201.717 61.0563 201.717 60.1621 202.29 59.654L204.01 61.5923ZM209.44 79.3693C210.626 79.3693 210.885 81.0372 209.755 81.3962L208.97 78.926C207.278 79.4636 207.665 81.9611 209.44 81.9611V79.3693ZM212.537 75.0798C212.509 75.0897 212.504 75.0825 212.53 75.0874C212.558 75.0927 212.594 75.1073 212.623 75.1288C212.653 75.151 212.647 75.1583 212.633 75.1277C212.625 75.1107 212.616 75.0833 212.611 75.047C212.607 75.0097 212.609 74.9725 212.616 74.9401L215.146 75.5023C215.389 74.4082 214.804 73.5147 214.157 73.0399C213.517 72.5694 212.572 72.3106 211.655 72.6427L212.537 75.0798Z" fill="url(#paint3_linear_33_370)" mask="url(#path-5-outside-2_33_370)"/>
<mask id="path-7-inside-3_33_370" fill="white">
<path fill-rule="evenodd" clip-rule="evenodd" d="M64.0616 59.8154C63.9853 59.8182 63.9273 59.7463 63.9463 59.6724C64.1036 59.057 64.1872 58.4121 64.1872 57.7476C64.1872 53.4687 60.7185 50 56.4396 50C52.1607 50 48.6919 53.4687 48.6919 57.7476C48.6919 58.4103 48.7751 59.0535 48.9316 59.6674C48.9501 59.74 48.8945 59.811 48.8195 59.8103C48.7956 59.8101 48.7716 59.81 48.7476 59.81C44.4687 59.81 41 63.2787 41 67.5576C41 71.8365 44.4687 75.3053 48.7476 75.3053C50.9522 75.3053 52.9417 74.3845 54.3525 72.9066C54.4277 72.8279 54.5647 72.8885 54.5533 72.9968L54.3783 74.6701C54.1718 76.6438 53.1023 78.4249 51.4572 79.5347L49.1056 81.1211C49.0144 81.1826 49.058 81.325 49.1679 81.325H63.9503C64.0588 81.325 64.1033 81.1857 64.015 81.1228L61.7301 79.4938C60.2029 78.4051 59.2078 76.7209 58.9909 74.858L58.804 73.2525C58.7917 73.1464 58.923 73.0836 59.0002 73.1574C60.3913 74.488 62.2774 75.3053 64.3544 75.3053C68.6333 75.3053 72.1021 71.8365 72.1021 67.5576C72.1021 63.2787 68.6333 59.81 64.3544 59.81C64.2564 59.81 64.1588 59.8118 64.0616 59.8154Z"/>
</mask>
<path fill-rule="evenodd" clip-rule="evenodd" d="M64.0616 59.8154C63.9853 59.8182 63.9273 59.7463 63.9463 59.6724C64.1036 59.057 64.1872 58.4121 64.1872 57.7476C64.1872 53.4687 60.7185 50 56.4396 50C52.1607 50 48.6919 53.4687 48.6919 57.7476C48.6919 58.4103 48.7751 59.0535 48.9316 59.6674C48.9501 59.74 48.8945 59.811 48.8195 59.8103C48.7956 59.8101 48.7716 59.81 48.7476 59.81C44.4687 59.81 41 63.2787 41 67.5576C41 71.8365 44.4687 75.3053 48.7476 75.3053C50.9522 75.3053 52.9417 74.3845 54.3525 72.9066C54.4277 72.8279 54.5647 72.8885 54.5533 72.9968L54.3783 74.6701C54.1718 76.6438 53.1023 78.4249 51.4572 79.5347L49.1056 81.1211C49.0144 81.1826 49.058 81.325 49.1679 81.325H63.9503C64.0588 81.325 64.1033 81.1857 64.015 81.1228L61.7301 79.4938C60.2029 78.4051 59.2078 76.7209 58.9909 74.858L58.804 73.2525C58.7917 73.1464 58.923 73.0836 59.0002 73.1574C60.3913 74.488 62.2774 75.3053 64.3544 75.3053C68.6333 75.3053 72.1021 71.8365 72.1021 67.5576C72.1021 63.2787 68.6333 59.81 64.3544 59.81C64.2564 59.81 64.1588 59.8118 64.0616 59.8154Z" fill="black"/>
<path d="M54.3783 74.6701L53.0894 74.5353L54.3783 74.6701ZM51.4572 79.5347L52.1819 80.609H52.1819L51.4572 79.5347ZM61.7301 79.4938L62.4824 78.4386V78.4386L61.7301 79.4938ZM58.9909 74.858L57.7037 75.0079L58.9909 74.858ZM64.015 81.1228L64.7673 80.0676L64.015 81.1228ZM63.9463 59.6724L65.2018 59.9933L63.9463 59.6724ZM64.0616 59.8154L64.1097 61.1104L64.0616 59.8154ZM49.1056 81.1211L48.3809 80.0468L49.1056 81.1211ZM54.3525 72.9066L53.4151 72.0118L54.3525 72.9066ZM58.804 73.2525L60.0912 73.1026L58.804 73.2525ZM59.0002 73.1574L59.8959 72.2209L59.0002 73.1574ZM48.9316 59.6674L47.6758 59.9875L48.9316 59.6674ZM48.8195 59.8103L48.8313 58.5144L48.8195 59.8103ZM65.2018 59.9933C65.3857 59.2739 65.4831 58.5212 65.4831 57.7476H62.8913C62.8913 58.3029 62.8214 58.84 62.6907 59.3514L65.2018 59.9933ZM65.4831 57.7476C65.4831 52.753 61.4342 48.7041 56.4396 48.7041V51.2959C60.0028 51.2959 62.8913 54.1845 62.8913 57.7476H65.4831ZM56.4396 48.7041C51.4449 48.7041 47.396 52.753 47.396 57.7476H49.9878C49.9878 54.1845 52.8764 51.2959 56.4396 51.2959V48.7041ZM47.396 57.7476C47.396 58.5191 47.4929 59.2699 47.6758 59.9875L50.1874 59.3473C50.0573 58.8371 49.9878 58.3014 49.9878 57.7476H47.396ZM48.8313 58.5144C48.8035 58.5142 48.7756 58.514 48.7476 58.514V61.1059C48.7677 61.1059 48.7877 61.106 48.8077 61.1062L48.8313 58.5144ZM48.7476 58.514C43.753 58.514 39.7041 62.563 39.7041 67.5576H42.2959C42.2959 63.9944 45.1845 61.1059 48.7476 61.1059V58.514ZM39.7041 67.5576C39.7041 72.5522 43.753 76.6012 48.7476 76.6012V74.0093C45.1845 74.0093 42.2959 71.1208 42.2959 67.5576H39.7041ZM48.7476 76.6012C51.3208 76.6012 53.6447 75.5249 55.2899 73.8014L53.4151 72.0118C52.2387 73.2442 50.5836 74.0093 48.7476 74.0093V76.6012ZM53.2645 72.8619L53.0894 74.5353L55.6672 74.805L55.8422 73.1316L53.2645 72.8619ZM53.0894 74.5353C52.9228 76.1278 52.0598 77.5649 50.7324 78.4604L52.1819 80.609C54.1447 79.2849 55.4208 77.1598 55.6672 74.805L53.0894 74.5353ZM50.7324 78.4604L48.3809 80.0468L49.8304 82.1954L52.1819 80.609L50.7324 78.4604ZM49.1679 82.6209H63.9503V80.0291H49.1679V82.6209ZM64.7673 80.0676L62.4824 78.4386L60.9778 80.549L63.2627 82.178L64.7673 80.0676ZM62.4824 78.4386C61.2535 77.5625 60.4527 76.2073 60.2782 74.7082L57.7037 75.0079C57.963 77.2346 59.1524 79.2476 60.9778 80.549L62.4824 78.4386ZM60.2782 74.7082L60.0912 73.1026L57.5168 73.4024L57.7037 75.0079L60.2782 74.7082ZM64.3544 74.0093C62.6243 74.0093 61.0555 73.33 59.8959 72.2209L58.1044 74.094C59.7271 75.6459 61.9306 76.6012 64.3544 76.6012V74.0093ZM70.8061 67.5576C70.8061 71.1208 67.9176 74.0093 64.3544 74.0093V76.6012C69.349 76.6012 73.398 72.5522 73.398 67.5576H70.8061ZM64.3544 61.1059C67.9176 61.1059 70.8061 63.9944 70.8061 67.5576H73.398C73.398 62.563 69.349 58.514 64.3544 58.514V61.1059ZM64.1097 61.1104C64.1909 61.1074 64.2724 61.1059 64.3544 61.1059V58.514C64.2403 58.514 64.1267 58.5162 64.0135 58.5204L64.1097 61.1104ZM63.9503 82.6209C65.3201 82.6209 65.8826 80.8627 64.7673 80.0676L63.2627 82.178C62.324 81.5088 62.7974 80.0291 63.9503 80.0291V82.6209ZM62.6907 59.3514C62.4574 60.2641 63.1679 61.1454 64.1097 61.1104L64.0135 58.5204C64.8028 58.491 65.3973 59.2286 65.2018 59.9933L62.6907 59.3514ZM48.3809 80.0468C47.2298 80.8233 47.7794 82.6209 49.1679 82.6209V80.0291C50.3365 80.0291 50.7991 81.5419 49.8304 82.1954L48.3809 80.0468ZM55.2899 73.8014C54.5611 74.5649 53.1398 74.0538 53.2645 72.8619L55.8422 73.1316C55.9896 71.7232 54.2943 71.0908 53.4151 72.0118L55.2899 73.8014ZM60.0912 73.1026C60.2267 74.2662 58.8579 74.8146 58.1044 74.094L59.8959 72.2209C58.988 71.3526 57.3566 72.0266 57.5168 73.4024L60.0912 73.1026ZM47.6758 59.9875C47.4844 59.2364 48.0555 58.5074 48.8313 58.5144L48.8077 61.1062C49.7335 61.1146 50.4159 60.2436 50.1874 59.3473L47.6758 59.9875Z" fill="url(#paint4_linear_33_370)" mask="url(#path-7-inside-3_33_370)"/>
<mask id="path-9-inside-4_33_370" fill="white">
<path fill-rule="evenodd" clip-rule="evenodd" d="M25.8553 24.5131L12.9592 9L0.0630573 24.5131H0L0.0315287 24.551L0 24.589H0.0630573L12.9592 40.1021L25.8553 24.589H25.9184L25.8869 24.551L25.9184 24.5131H25.8553Z"/>
</mask>
<path fill-rule="evenodd" clip-rule="evenodd" d="M25.8553 24.5131L12.9592 9L0.0630573 24.5131H0L0.0315287 24.551L0 24.589H0.0630573L12.9592 40.1021L25.8553 24.589H25.9184L25.8869 24.551L25.9184 24.5131H25.8553Z" fill="black"/>
<path d="M12.9592 9L13.9557 8.17157L12.9592 6.97279L11.9626 8.17157L12.9592 9ZM25.8553 24.5131L24.8588 25.3415L25.2474 25.809H25.8553V24.5131ZM0.0630573 24.5131V25.809H0.67098L1.0596 25.3415L0.0630573 24.5131ZM0 24.5131V23.2172H-2.76253L-0.996546 25.3415L0 24.5131ZM0.0315287 24.551L1.02807 25.3795L1.71676 24.551L1.02807 23.7226L0.0315287 24.551ZM0 24.589L-0.996546 23.7605L-2.76253 25.8849H0V24.589ZM0.0630573 24.589L1.0596 23.7605L0.67098 23.293H0.0630573V24.589ZM12.9592 40.1021L11.9626 40.9305L12.9592 42.1293L13.9557 40.9305L12.9592 40.1021ZM25.8553 24.589V23.293H25.2474L24.8588 23.7605L25.8553 24.589ZM25.9184 24.589V25.8849H28.6809L26.9149 23.7605L25.9184 24.589ZM25.8869 24.551L24.8903 23.7226L24.2016 24.551L24.8903 25.3795L25.8869 24.551ZM25.9184 24.5131L26.9149 25.3415L28.6809 23.2172H25.9184V24.5131ZM11.9626 9.82843L24.8588 25.3415L26.8519 23.6847L13.9557 8.17157L11.9626 9.82843ZM1.0596 25.3415L13.9557 9.82843L11.9626 8.17157L-0.933488 23.6847L1.0596 25.3415ZM0.0630573 23.2172H0V25.809H0.0630573V23.2172ZM-0.996546 25.3415L-0.965017 25.3795L1.02807 23.7226L0.996546 23.6847L-0.996546 25.3415ZM0.996546 25.4174L1.02807 25.3795L-0.965017 23.7226L-0.996546 23.7605L0.996546 25.4174ZM0.0630573 23.293H0V25.8849H0.0630573V23.293ZM-0.933488 25.4174L11.9626 40.9305L13.9557 39.2736L1.0596 23.7605L-0.933488 25.4174ZM13.9557 40.9305L26.8519 25.4174L24.8588 23.7605L11.9626 39.2736L13.9557 40.9305ZM25.9184 23.293H25.8553V25.8849H25.9184V23.293ZM24.8903 25.3795L24.9218 25.4174L26.9149 23.7605L26.8834 23.7226L24.8903 25.3795ZM26.8834 25.3795L26.9149 25.3415L24.9218 23.6847L24.8903 23.7226L26.8834 25.3795ZM25.9184 23.2172H25.8553V25.809H25.9184V23.2172Z" fill="url(#paint5_linear_33_370)" mask="url(#path-9-inside-4_33_370)"/>
<defs>
<linearGradient id="paint0_linear_33_370" x1="134.082" y1="7.62939e-06" x2="134.082" y2="50" gradientUnits="userSpaceOnUse">
<stop stop-color="#F4EBB1"/>
<stop offset="1" stop-color="#C7BA7E"/>
</linearGradient>
<linearGradient id="paint1_linear_33_370" x1="133.847" y1="44.0613" x2="133.847" y2="73.0613" gradientUnits="userSpaceOnUse">
<stop stop-color="#F4EBB1"/>
<stop offset="1" stop-color="#C7BA7E"/>
</linearGradient>
<linearGradient id="paint2_linear_33_370" x1="257.551" y1="8" x2="257.551" y2="39.1021" gradientUnits="userSpaceOnUse">
<stop stop-color="#F6ECA5"/>
<stop offset="1" stop-color="#A67B36"/>
</linearGradient>
<linearGradient id="paint3_linear_33_370" x1="215.424" y1="50" x2="215.424" y2="80.6907" gradientUnits="userSpaceOnUse">
<stop stop-color="#F6ECA5"/>
<stop offset="1" stop-color="#A67B36"/>
</linearGradient>
<linearGradient id="paint4_linear_33_370" x1="56.551" y1="50" x2="56.551" y2="81.325" gradientUnits="userSpaceOnUse">
<stop stop-color="#F6ECA5"/>
<stop offset="1" stop-color="#A67B36"/>
</linearGradient>
<linearGradient id="paint5_linear_33_370" x1="12.9592" y1="9" x2="12.9592" y2="40.1021" gradientUnits="userSpaceOnUse">
<stop stop-color="#F6ECA5"/>
<stop offset="1" stop-color="#A67B36"/>
</linearGradient>
</defs>
</svg>
