<svg width="275" height="36" viewBox="0 0 275 36" fill="none" xmlns="http://www.w3.org/2000/svg">
<path d="M49.1633 17.9926C49.1633 21.5313 49.4812 24.3789 50.1171 26.5353C50.7529 28.6641 51.7897 30.2261 53.2273 31.2214C54.6925 32.2166 56.6554 32.7143 59.1159 32.7143H60.443V22.5128H56.3375V21.2687H67.6586V32.1752C67.0504 32.2857 66.3178 32.4516 65.4608 32.6728C64.6314 32.8663 63.9955 33.0184 63.5532 33.1289C61.7285 33.5989 60.2633 33.9445 59.1574 34.1657C58.0792 34.3869 57.0701 34.4974 56.1301 34.4974C53.172 34.4974 50.4903 33.9998 48.0851 33.0045C45.6799 31.9816 43.7308 30.3229 42.2379 28.0282C40.7726 25.7336 40.04 22.7478 40.04 19.0708C40.04 14.0668 41.5467 10.3899 44.5602 8.04003C47.5736 5.66243 51.5409 4.47363 56.4619 4.47363C58.5077 4.47363 60.4844 4.65333 62.392 5.01273C64.3273 5.37213 65.834 5.81443 66.9122 6.33973L66.3316 13.4724H65.1705C64.3964 11.1225 63.332 9.24263 61.9773 7.83263C60.6503 6.39503 58.8257 5.67623 56.5034 5.67623C53.877 5.67623 51.997 6.71293 50.8635 8.78643C49.73 10.8322 49.1633 13.901 49.1633 17.9926ZM87.8973 33.1704L89.6805 33.0045C90.0676 32.9492 90.2611 32.7972 90.2611 32.5484C90.2611 32.4101 90.2196 32.2443 90.1367 32.0507L87.3997 25.9962H77.7788L75.2906 32.0507C75.2077 32.2443 75.1662 32.4101 75.1662 32.5484C75.1662 32.7972 75.3597 32.9492 75.7468 33.0045L77.53 33.1704V33.9998H71.2266V33.1704L72.761 33.0045C73.0928 32.9769 73.3277 32.894 73.466 32.7557C73.6042 32.6175 73.7563 32.3687 73.9221 32.0093L85.4092 4.51513H86.7362L98.8867 32.0093C99.0526 32.3687 99.2047 32.6175 99.3429 32.7557C99.4811 32.894 99.7161 32.9769 100.048 33.0045L101.582 33.1704V33.9998H87.8973V33.1704ZM86.8606 24.7521L82.3819 14.8409L78.2764 24.7521H86.8606ZM107.246 31.9678C107.246 32.2719 107.302 32.4793 107.412 32.5898C107.55 32.6728 107.813 32.7557 108.2 32.8387L109.693 33.1704V33.9998H103.39V33.1704L104.924 32.8387C105.339 32.7557 105.601 32.659 105.712 32.5484C105.85 32.4378 105.919 32.2304 105.919 31.9263V7.04473C105.919 6.74063 105.85 6.53323 105.712 6.42263C105.601 6.31213 105.339 6.21533 104.924 6.13243L103.39 5.80063V4.97123H114.006L122.548 23.4251L130.179 4.97123H141.127V5.80063L139.592 6.13243C139.178 6.21533 138.901 6.31213 138.763 6.42263C138.652 6.53323 138.597 6.74063 138.597 7.04473V31.9263C138.597 32.2304 138.652 32.4378 138.763 32.5484C138.901 32.659 139.178 32.7557 139.592 32.8387L141.127 33.1704V33.9998H127.691V33.1704L129.184 32.8387C129.571 32.7557 129.819 32.6728 129.93 32.5898C130.068 32.4793 130.137 32.2719 130.137 31.9678V8.49613L119.604 33.9998H118.36L107.246 9.57433V31.9678ZM156.011 4.97123C159.356 4.97123 161.996 5.19243 163.931 5.63473C165.894 6.07713 167.304 6.78203 168.161 7.74973C169.046 8.71733 169.488 10.0305 169.488 11.6893C169.488 13.901 168.825 15.5321 167.498 16.5827C166.171 17.6332 164.056 18.3105 161.153 18.6147C163.531 18.8082 165.438 19.1814 166.876 19.7343C168.313 20.2873 169.364 21.1028 170.027 22.181C170.719 23.2316 171.064 24.6277 171.064 26.3694C171.064 28.3047 170.539 29.8252 169.488 30.9311C168.438 32.0369 166.807 32.8248 164.595 33.2948C162.411 33.7648 159.467 33.9998 155.762 33.9998H143.28V33.1704L144.814 32.8387C145.229 32.7557 145.491 32.659 145.602 32.5484C145.74 32.4378 145.809 32.2304 145.809 31.9263V7.04473C145.809 6.74063 145.74 6.53323 145.602 6.42263C145.491 6.31213 145.229 6.21533 144.814 6.13243L143.28 5.80063V4.97123H156.011ZM156.301 18.0756C158.015 18.0756 159.287 17.5503 160.116 16.4997C160.946 15.4492 161.36 13.8457 161.36 11.6893C161.36 9.83703 160.946 8.46853 160.116 7.58383C159.314 6.67153 158.043 6.21533 156.301 6.21533H154.269V18.0756H156.301ZM154.269 32.7557H156.135C160.393 32.7557 162.521 30.627 162.521 26.3694C162.521 23.8813 162.079 22.0843 161.194 20.9784C160.31 19.8726 158.734 19.3196 156.467 19.3196H154.269V32.7557ZM176.506 7.04473C176.506 6.74063 176.437 6.53323 176.299 6.42263C176.188 6.31213 175.926 6.21533 175.511 6.13243L173.977 5.80063V4.97123H187.745V5.80063L185.961 6.17383C185.547 6.25683 185.27 6.35353 185.132 6.46413C185.021 6.57473 184.966 6.78203 184.966 7.08623V32.7557H190.191C191.822 32.7557 193.094 32.5069 194.006 32.0093C194.919 31.5116 195.624 30.8067 196.121 29.8943C196.647 28.982 197.227 27.5997 197.863 25.7474H199.024V33.9998H173.977V33.1704L175.511 32.8387C175.926 32.7557 176.188 32.659 176.299 32.5484C176.437 32.4378 176.506 32.2304 176.506 31.9263V7.04473ZM203.211 32.8387C203.626 32.7557 203.889 32.659 203.999 32.5484C204.137 32.4378 204.207 32.2304 204.207 31.9263V7.04473C204.207 6.74063 204.137 6.53323 203.999 6.42263C203.889 6.31213 203.626 6.21533 203.211 6.13243L201.677 5.80063V4.97123H227.222V13.0578H226.185C225.605 11.2607 225.052 9.90613 224.527 8.99373C224.029 8.08143 223.324 7.39033 222.412 6.92033C221.499 6.45033 220.214 6.21533 218.555 6.21533H212.666V18.5317H223.365V19.7758H212.666V32.7557H218.97C220.601 32.7557 221.886 32.5069 222.826 32.0093C223.766 31.5116 224.499 30.7928 225.024 29.8529C225.577 28.9129 226.144 27.5444 226.725 25.7474H227.803V33.9998H201.677V33.1704L203.211 32.8387Z" fill="url(#paint0_linear_927_39)"/>
<path fill-rule="evenodd" clip-rule="evenodd" d="M270.531 4.85329C267.104 1.0489 261.546 1.0489 258.118 4.85329L257.524 5.51339L256.984 4.91389C253.556 1.10951 247.998 1.10951 244.571 4.91389C241.143 8.71829 241.143 14.8864 244.571 18.6907L257.555 33.1021L269.968 19.3252L269.936 19.2903L270.531 18.6301C273.959 14.8258 273.959 8.65769 270.531 4.85329Z" fill="black"/>
<mask id="mask0_927_39" style="mask-type:luminance" maskUnits="userSpaceOnUse" x="240" y="0" width="35" height="36">
<path d="M275 0H240V36H275V0Z" fill="white"/>
<path fill-rule="evenodd" clip-rule="evenodd" d="M270.531 4.85329C267.104 1.0489 261.546 1.0489 258.118 4.85329L257.524 5.51339L256.984 4.91389C253.556 1.10951 247.998 1.10951 244.571 4.91389C241.143 8.71829 241.143 14.8864 244.571 18.6907L257.555 33.1021L269.968 19.3252L269.936 19.2903L270.531 18.6301C273.959 14.8258 273.959 8.65769 270.531 4.85329Z" fill="black"/>
</mask>
<g mask="url(#mask0_927_39)">
<path d="M257.524 5.51342L256.561 6.38092L257.524 7.44952L258.486 6.38092L257.524 5.51342ZM257.555 33.1021L256.592 33.9695L257.555 35.0381L258.518 33.9695L257.555 33.1021ZM269.968 19.3252L270.931 20.1927L271.712 19.3252L270.931 18.4578L269.968 19.3252ZM269.936 19.2903L268.974 18.4229L268.192 19.2903L268.974 20.1578L269.936 19.2903ZM259.081 5.72072C261.994 2.48767 266.656 2.48767 269.568 5.72072L271.494 3.98585C267.552 -0.38981 261.098 -0.38982 257.156 3.98585L259.081 5.72072ZM258.486 6.38092L259.081 5.72072L257.156 3.98585L256.561 4.64602L258.486 6.38092ZM256.021 5.78132L256.561 6.38092L258.486 4.64602L257.946 4.04642L256.021 5.78132ZM245.534 5.78132C248.446 2.54828 253.108 2.54828 256.021 5.78132L257.946 4.04642C254.004 -0.3292 247.55 -0.3292 243.608 4.04642L245.534 5.78132ZM245.534 17.8233C242.55 14.5119 242.55 9.09272 245.534 5.78132L243.608 4.04642C239.736 8.34382 239.736 15.2608 243.608 19.5582L245.534 17.8233ZM258.518 32.2346L245.534 17.8233L243.608 19.5582L256.592 33.9695L258.518 32.2346ZM269.005 18.4578L256.592 32.2346L258.518 33.9695L270.931 20.1927L269.005 18.4578ZM268.974 20.1578L269.005 20.1927L270.931 18.4578L270.899 18.4228L268.974 20.1578ZM269.568 17.7627L268.974 18.4229L270.899 20.1577L271.494 19.4976L269.568 17.7627ZM269.568 5.72072C272.552 9.03212 272.552 14.4513 269.568 17.7627L271.494 19.4976C275.366 15.2002 275.366 8.28322 271.494 3.98585L269.568 5.72072Z" fill="url(#paint1_linear_927_39)"/>
</g>
<path fill-rule="evenodd" clip-rule="evenodd" d="M25.8553 18.5131L12.9592 3L0.0630573 18.5131H0L0.0315287 18.551L0 18.589H0.0630573L12.9592 34.1021L25.8553 18.589H25.9184L25.8869 18.551L25.9184 18.5131H25.8553Z" fill="black"/>
<mask id="mask1_927_39" style="mask-type:luminance" maskUnits="userSpaceOnUse" x="0" y="3" width="26" height="32">
<path fill-rule="evenodd" clip-rule="evenodd" d="M25.8553 18.5131L12.9592 3L0.0630573 18.5131H0L0.0315287 18.551L0 18.589H0.0630573L12.9592 34.1021L25.8553 18.589H25.9184L25.8869 18.551L25.9184 18.5131H25.8553Z" fill="white"/>
</mask>
<g mask="url(#mask1_927_39)">
<path d="M12.959 2.99987L13.9555 2.17144L12.959 0.972656L11.9624 2.17144L12.959 2.99987ZM25.8551 18.513L24.8586 19.3414L25.2472 19.8089H25.8551V18.513ZM0.062892 18.513V19.8089H0.670815L1.05943 19.3414L0.062892 18.513ZM-0.000165224 18.513V17.2171H-2.7627L-0.996711 19.3414L-0.000165224 18.513ZM0.0313635 18.5509L1.0279 19.3794L1.71659 18.5509L1.0279 17.7225L0.0313635 18.5509ZM-0.000165224 18.5889L-0.996711 17.7604L-2.7627 19.8848H-0.000165224V18.5889ZM0.062892 18.5889L1.05943 17.7604L0.670815 17.2929H0.062892V18.5889ZM12.959 34.102L11.9624 34.9304L12.959 36.1292L13.9555 34.9304L12.959 34.102ZM25.8551 18.5889V17.2929H25.2472L24.8586 17.7604L25.8551 18.5889ZM25.9182 18.5889V19.8848H28.6807L26.9147 17.7604L25.9182 18.5889ZM25.8867 18.5509L24.8901 17.7225L24.2014 18.5509L24.8901 19.3794L25.8867 18.5509ZM25.9182 18.513L26.9147 19.3414L28.6807 17.2171H25.9182V18.513ZM11.9624 3.8283L24.8586 19.3414L26.8517 17.6846L13.9555 2.17144L11.9624 3.8283ZM1.05943 19.3414L13.9555 3.8283L11.9624 2.17144L-0.933653 17.6846L1.05943 19.3414ZM0.062892 17.2171H-0.000165224V19.8089H0.062892V17.2171ZM-0.996711 19.3414L-0.965182 19.3794L1.0279 17.7225L0.996381 17.6846L-0.996711 19.3414ZM0.996381 19.4173L1.0279 19.3794L-0.965182 17.7225L-0.996711 17.7604L0.996381 19.4173ZM0.062892 17.2929H-0.000165224V19.8848H0.062892V17.2929ZM-0.933653 19.4173L11.9624 34.9304L13.9555 33.2735L1.05943 17.7604L-0.933653 19.4173ZM13.9555 34.9304L26.8517 19.4173L24.8586 17.7604L11.9624 33.2735L13.9555 34.9304ZM25.9182 17.2929H25.8551V19.8848H25.9182V17.2929ZM24.8901 19.3794L24.9216 19.4173L26.9147 17.7604L26.8832 17.7225L24.8901 19.3794ZM26.8832 19.3794L26.9147 19.3414L24.9216 17.6846L24.8901 17.7225L26.8832 19.3794ZM25.9182 17.2171H25.8551V19.8089H25.9182V17.2171Z" fill="url(#paint2_linear_927_39)"/>
</g>
<defs>
<linearGradient id="paint0_linear_927_39" x1="134.082" y1="-6.00016" x2="134.082" y2="43.9998" gradientUnits="userSpaceOnUse">
<stop stop-color="#F4EBB1"/>
<stop offset="1" stop-color="#C7BA7E"/>
</linearGradient>
<linearGradient id="paint1_linear_927_39" x1="257.551" y1="2.00002" x2="257.551" y2="33.1021" gradientUnits="userSpaceOnUse">
<stop stop-color="#F6ECA5"/>
<stop offset="1" stop-color="#A67B36"/>
</linearGradient>
<linearGradient id="paint2_linear_927_39" x1="12.959" y1="2.99987" x2="12.959" y2="34.102" gradientUnits="userSpaceOnUse">
<stop stop-color="#F6ECA5"/>
<stop offset="1" stop-color="#A67B36"/>
</linearGradient>
</defs>
</svg>
