<svg width="512" height="512" viewBox="0 0 512 512" fill="none" xmlns="http://www.w3.org/2000/svg">
<path d="M256 0C114.56 0 0 114.56 0 256C0 397.44 114.56 512 256 512C397.44 512 512 397.44 512 256C512 114.56 397.44 0 256 0ZM98.7733 399.787C64 361.813 42.6667 311.467 42.6667 256C42.6667 247.893 43.3067 240 44.16 232.107L78.9333 243.413C78.72 247.68 78.2933 251.733 78.2933 256C78.2933 299.733 94.08 339.627 120.107 370.56L98.7733 399.787ZM105.173 162.133L70.6133 150.827C100.48 98.1333 152.107 59.3067 213.333 46.9333V83.6267C168.469 94.7921 129.692 122.938 105.173 162.133ZM256 469.333C224.427 469.333 194.773 462.293 167.68 449.92L189.013 420.48C209.707 428.8 232.32 433.707 256 433.707C279.68 433.707 302.293 429.013 322.987 420.48L344.32 449.92C316.632 462.708 286.498 469.332 256 469.333ZM212.693 344.747L247.04 310.4C251.947 305.493 260.053 305.493 265.173 310.4L299.52 344.747C303.573 348.8 300.8 355.627 295.04 355.627H217.387C211.627 355.627 208.853 348.8 212.907 344.747H212.693ZM365.227 262.4L328.96 298.667C324.053 303.573 315.947 303.573 310.827 298.667L264.96 252.8C260.053 247.893 251.947 247.893 246.827 252.8L200.96 298.667C196.053 303.573 187.947 303.573 182.827 298.667L146.56 262.4C141.653 257.493 141.653 249.387 146.56 244.267L246.827 144C251.733 139.093 259.84 139.093 264.96 144L365.227 244.267C370.133 249.173 370.133 257.28 365.227 262.4ZM298.667 83.6267V46.9333C359.893 59.3067 411.52 98.1333 441.387 150.827L406.827 162.133C382.72 123.52 344.107 94.72 298.667 83.6267ZM413.227 399.787L391.893 370.56C417.92 339.627 433.707 299.733 433.707 256C433.707 251.733 433.28 247.467 433.067 243.413L467.84 232.107C468.693 240 469.333 247.893 469.333 256C469.333 311.467 448 361.813 413.227 399.787Z" fill="url(#paint0_linear_1066_63)"/>
<defs>
<linearGradient id="paint0_linear_1066_63" x1="512" y1="256" x2="0" y2="256" gradientUnits="userSpaceOnUse">
<stop stop-color="#FFCF43"/>
<stop offset="0.5" stop-color="#FFEBB1"/>
<stop offset="1" stop-color="#FFCF43"/>
</linearGradient>
</defs>
</svg>
