<svg width="64" height="64" viewBox="0 0 64 64" fill="none" xmlns="http://www.w3.org/2000/svg">
<path fill-rule="evenodd" clip-rule="evenodd" d="M48.322 30.536C50.4789 27.3078 51.6301 23.5125 51.63 19.63C51.6313 17.0518 51.1245 14.4986 50.1384 12.1164C49.1524 9.73416 47.7065 7.56964 45.8834 5.74656C44.0604 3.92349 41.8958 2.4776 39.5136 1.49157C37.1314 0.505536 34.5782 -0.00131186 32 2.54995e-06C28.6087 6.40475e-05 25.2752 0.87872 22.3245 2.55034C19.3738 4.22195 16.9065 6.62951 15.163 9.53835C13.4196 12.4472 12.4595 15.7581 12.3763 19.1484C12.2931 22.5387 13.0896 25.8927 14.6883 28.8836C16.2869 31.8745 18.6332 34.4001 21.4984 36.2145C24.3635 38.0288 27.6499 39.0699 31.0371 39.2364C34.4243 39.4028 37.7969 38.6888 40.8261 37.1641C43.8553 35.6393 46.4379 33.3558 48.322 30.536ZM42.197 43.97C45.4302 42.6307 48.3673 40.6665 50.84 38.19C54.69 39.5667 58.0207 42.0992 60.3763 45.4412C62.732 48.7831 63.9976 52.7713 64 56.86V64H0V56.86C0.00239648 52.7713 1.26799 48.7831 3.62366 45.4412C5.97932 42.0992 9.30998 39.5667 13.16 38.19C16.8848 41.9187 21.6322 44.4583 26.8012 45.4872C31.9702 46.5161 37.3283 45.9881 42.197 43.97Z" fill="url(#paint0_linear_1079_5)"/>
<defs>
<linearGradient id="paint0_linear_1079_5" x1="64" y1="32" x2="0" y2="32" gradientUnits="userSpaceOnUse">
<stop stop-color="#FFCF43"/>
<stop offset="0.5" stop-color="#FFEBB1"/>
<stop offset="1" stop-color="#FFCF43"/>
</linearGradient>
</defs>
</svg>
