<svg width="81" height="76" viewBox="0 0 81 76" fill="none" xmlns="http://www.w3.org/2000/svg">
<mask id="path-1-inside-1_50_21" fill="white">
<path fill-rule="evenodd" clip-rule="evenodd" d="M43.4254 29.3452C41.0991 25.28 35.9325 23.8957 31.8854 26.2532L7.32794 40.5582C3.28082 42.9157 1.88577 48.1223 4.21199 52.1875L4.52835 52.7403C6.85457 56.8055 12.0212 58.1898 16.0683 55.8323L16.4546 55.6073C18.8828 54.1928 21.9828 55.0234 23.3785 57.4625L27.0645 63.9039C28.4602 66.343 31.5602 67.1736 33.9885 65.7591L36.2967 64.4145C38.7249 63 39.562 59.8761 38.1662 57.437L34.4803 50.9956C33.0845 48.5565 33.9216 45.4326 36.3498 44.0181L40.6258 41.5273C44.6729 39.1698 46.0679 33.9632 43.7417 29.898L43.4254 29.3452Z"/>
</mask>
<path fill-rule="evenodd" clip-rule="evenodd" d="M43.4254 29.3452C41.0991 25.28 35.9325 23.8957 31.8854 26.2532L7.32794 40.5582C3.28082 42.9157 1.88577 48.1223 4.21199 52.1875L4.52835 52.7403C6.85457 56.8055 12.0212 58.1898 16.0683 55.8323L16.4546 55.6073C18.8828 54.1928 21.9828 55.0234 23.3785 57.4625L27.0645 63.9039C28.4602 66.343 31.5602 67.1736 33.9885 65.7591L36.2967 64.4145C38.7249 63 39.562 59.8761 38.1662 57.437L34.4803 50.9956C33.0845 48.5565 33.9216 45.4326 36.3498 44.0181L40.6258 41.5273C44.6729 39.1698 46.0679 33.9632 43.7417 29.898L43.4254 29.3452Z" fill="#06695A"/>
<path d="M43.4254 29.3452L44.7215 28.5902L43.4254 29.3452ZM4.21199 52.1875L2.91586 52.9425L4.21199 52.1875ZM4.52835 52.7403L5.82448 51.9853L4.52835 52.7403ZM27.0645 63.9039L28.3606 63.1489L27.0645 63.9039ZM33.9885 65.7591L34.7335 67.061L33.9885 65.7591ZM36.2967 64.4145L35.5517 63.1126L36.2967 64.4145ZM38.1662 57.437L39.4624 56.6819L38.1662 57.437ZM43.7417 29.898L42.4456 30.653L43.7417 29.898ZM23.3785 57.4625L22.0824 58.2175L23.3785 57.4625ZM32.6304 27.5551C35.9617 25.6146 40.2145 26.754 42.1292 30.1002L44.7215 28.5902C41.9838 23.806 35.9034 22.1768 31.1404 24.9512L32.6304 27.5551ZM8.07294 41.8601L32.6304 27.5551L31.1404 24.9512L6.58294 39.2563L8.07294 41.8601ZM5.50813 51.4324C3.59335 48.0863 4.74166 43.8006 8.07294 41.8601L6.58294 39.2563C1.81999 42.0308 0.178186 48.1583 2.91586 52.9425L5.50813 51.4324ZM5.82448 51.9853L5.50813 51.4324L2.91586 52.9425L3.23222 53.4953L5.82448 51.9853ZM15.3233 54.5304C11.992 56.4709 7.73925 55.3314 5.82448 51.9853L3.23222 53.4953C5.96989 58.2795 12.0504 59.9087 16.8133 57.1342L15.3233 54.5304ZM15.7096 54.3054L15.3233 54.5304L16.8133 57.1342L17.1996 56.9092L15.7096 54.3054ZM28.3606 63.1489L24.6747 56.7075L22.0824 58.2175L25.7684 64.6589L28.3606 63.1489ZM33.2435 64.4572C31.531 65.4547 29.3449 64.8689 28.3606 63.1489L25.7684 64.6589C27.5755 67.817 31.5893 68.8925 34.7335 67.061L33.2435 64.4572ZM35.5517 63.1126L33.2435 64.4572L34.7335 67.061L37.0417 65.7164L35.5517 63.1126ZM36.8701 58.192C37.8544 59.912 37.2641 62.1151 35.5517 63.1126L37.0417 65.7164C40.1858 63.885 41.2696 59.8401 39.4624 56.6819L36.8701 58.192ZM33.1841 51.7506L36.8701 58.192L39.4624 56.6819L35.7764 50.2406L33.1841 51.7506ZM39.8808 40.2254L35.6048 42.7161L37.0948 45.32L41.3708 42.8292L39.8808 40.2254ZM42.4456 30.653C44.3604 33.9992 43.2121 38.2848 39.8808 40.2254L41.3708 42.8292C46.1337 40.0547 47.7755 33.9272 45.0379 29.143L42.4456 30.653ZM42.1292 30.1002L42.4456 30.653L45.0379 29.143L44.7215 28.5902L42.1292 30.1002ZM35.7764 50.2406C34.7921 48.5205 35.3824 46.3175 37.0948 45.32L35.6048 42.7161C32.4607 44.5476 31.377 48.5925 33.1841 51.7506L35.7764 50.2406ZM17.1996 56.9092C18.912 55.9117 21.0981 56.4975 22.0824 58.2175L24.6747 56.7075C22.8675 53.5494 18.8537 52.4739 15.7096 54.3054L17.1996 56.9092Z" fill="black" mask="url(#path-1-inside-1_50_21)"/>
<path d="M24.9856 44.4154C21.8325 44.2776 19.8966 40.8946 21.3549 38.0706L32.083 17.2961C33.6612 14.24 37.9641 14.1336 39.6665 17.1085L52.1342 38.8964C53.8366 41.8713 51.5937 45.5778 48.1814 45.4287L24.9856 44.4154Z" fill="#06695A" stroke="black" stroke-width="1.5"/>
<mask id="path-4-inside-2_50_21" fill="white">
<path fill-rule="evenodd" clip-rule="evenodd" d="M75.7558 10.7382L60.0232 38.2316L58.5576 37.3779L74.2902 9.88446L75.7558 10.7382ZM65.8504 16.617C65.8504 19.8639 63.2416 22.4961 60.0235 22.4961C56.8054 22.4961 54.1966 19.8639 54.1966 16.617C54.1966 13.3702 56.8054 10.738 60.0235 10.738C63.2416 10.738 65.8504 13.3702 65.8504 16.617ZM75.1732 37.7812C78.3913 37.7812 81.0001 35.1491 81.0001 31.9022C81.0001 28.6553 78.3913 26.0232 75.1732 26.0232C71.9551 26.0232 69.3463 28.6553 69.3463 31.9022C69.3463 35.1491 71.9551 37.7812 75.1732 37.7812Z"/>
</mask>
<path fill-rule="evenodd" clip-rule="evenodd" d="M75.7558 10.7382L60.0232 38.2316L58.5576 37.3779L74.2902 9.88446L75.7558 10.7382ZM65.8504 16.617C65.8504 19.8639 63.2416 22.4961 60.0235 22.4961C56.8054 22.4961 54.1966 19.8639 54.1966 16.617C54.1966 13.3702 56.8054 10.738 60.0235 10.738C63.2416 10.738 65.8504 13.3702 65.8504 16.617ZM75.1732 37.7812C78.3913 37.7812 81.0001 35.1491 81.0001 31.9022C81.0001 28.6553 78.3913 26.0232 75.1732 26.0232C71.9551 26.0232 69.3463 28.6553 69.3463 31.9022C69.3463 35.1491 71.9551 37.7812 75.1732 37.7812Z" fill="#06695A"/>
<path d="M60.0232 38.2316L59.2681 39.5277L60.5743 40.2886L61.3251 38.9766L60.0232 38.2316ZM75.7558 10.7382L77.0577 11.4832L77.797 10.1913L76.5108 9.44205L75.7558 10.7382ZM58.5576 37.3779L57.2557 36.6329L56.5164 37.9248L57.8026 38.674L58.5576 37.3779ZM74.2902 9.88446L75.0452 8.58833L73.7391 7.82747L72.9883 9.13946L74.2902 9.88446ZM61.3251 38.9766L77.0577 11.4832L74.4539 9.99319L58.7212 37.4866L61.3251 38.9766ZM57.8026 38.674L59.2681 39.5277L60.7782 36.9355L59.3126 36.0817L57.8026 38.674ZM72.9883 9.13946L57.2557 36.6329L59.8595 38.1229L75.5921 10.6295L72.9883 9.13946ZM76.5108 9.44205L75.0452 8.58833L73.5352 11.1806L75.0008 12.0343L76.5108 9.44205ZM60.0235 23.9961C64.0826 23.9961 67.3504 20.6797 67.3504 16.617H64.3504C64.3504 19.0481 62.4007 20.9961 60.0235 20.9961V23.9961ZM52.6966 16.617C52.6966 20.6797 55.9644 23.9961 60.0235 23.9961V20.9961C57.6464 20.9961 55.6966 19.0481 55.6966 16.617H52.6966ZM60.0235 9.23803C55.9644 9.23803 52.6966 12.5543 52.6966 16.617H55.6966C55.6966 14.186 57.6464 12.238 60.0235 12.238V9.23803ZM67.3504 16.617C67.3504 12.5543 64.0826 9.23803 60.0235 9.23803V12.238C62.4007 12.238 64.3504 14.186 64.3504 16.617H67.3504ZM79.5001 31.9022C79.5001 34.3333 77.5503 36.2812 75.1732 36.2812V39.2812C79.2323 39.2812 82.5001 35.9649 82.5001 31.9022H79.5001ZM75.1732 27.5232C77.5503 27.5232 79.5001 29.4711 79.5001 31.9022H82.5001C82.5001 27.8395 79.2323 24.5232 75.1732 24.5232V27.5232ZM70.8463 31.9022C70.8463 29.4711 72.796 27.5232 75.1732 27.5232V24.5232C71.1141 24.5232 67.8463 27.8395 67.8463 31.9022H70.8463ZM75.1732 36.2812C72.796 36.2812 70.8463 34.3333 70.8463 31.9022H67.8463C67.8463 35.9649 71.1141 39.2812 75.1732 39.2812V36.2812Z" fill="black" mask="url(#path-4-inside-2_50_21)"/>
</svg>
