<svg width="490" height="512" viewBox="0 0 490 512" fill="none" xmlns="http://www.w3.org/2000/svg">
<path fill-rule="evenodd" clip-rule="evenodd" d="M245.624 128.416C281.08 128.416 309.838 99.664 309.838 64.208C309.838 28.752 281.075 0 245.619 0C210.163 0 181.416 28.752 181.416 64.208C181.416 99.664 210.163 128.416 245.624 128.416ZM8.16819 267.979L221.518 366.112C228.747 369.418 236.608 371.116 244.558 371.088C252.636 371.106 260.622 369.358 267.955 365.968L267.603 366.112L480.952 267.979C483.353 266.862 485.385 265.083 486.811 262.852C488.236 260.621 488.996 258.029 489 255.381C488.999 252.75 488.249 250.173 486.838 247.952C485.428 245.731 483.414 243.957 481.032 242.837L480.952 242.805L270.579 145.952V233.205C270.579 239.995 267.882 246.506 263.081 251.307C258.28 256.108 251.768 258.805 244.979 258.805C241.617 258.806 238.287 258.144 235.181 256.858C232.074 255.572 229.251 253.686 226.873 251.309C224.496 248.932 222.61 246.11 221.323 243.003C220.036 239.897 219.374 236.568 219.374 233.205V145.952L8.14686 242.805C5.74701 243.922 3.71525 245.7 2.28981 247.93C0.864371 250.16 0.104348 252.75 0.0988579 255.397C0.0988579 260.949 3.36286 265.739 8.06686 267.947L8.14686 267.979H8.16819ZM223.651 422.229L0.0615234 321.099V388.373C0.0615234 398.677 6.10952 407.573 14.8455 411.717L15.0055 411.781L223.667 507.36C229.923 510.293 237.267 512 245 512C252.728 512 260.072 510.293 266.648 507.237L266.328 507.365L474.99 411.792C483.886 407.579 489.917 398.683 489.917 388.379V321.099L266.328 422.235C259.658 425.38 252.37 426.998 244.995 426.971C237.622 426.978 230.337 425.359 223.662 422.229L223.667 422.219L223.363 422.091L223.651 422.229Z" fill="url(#paint0_linear_1066_51)"/>
<defs>
<linearGradient id="paint0_linear_1066_51" x1="489.918" y1="256" x2="0.0615234" y2="256" gradientUnits="userSpaceOnUse">
<stop stop-color="#FFCF43"/>
<stop offset="0.5" stop-color="#FFEBB1"/>
<stop offset="1" stop-color="#FFCF43"/>
</linearGradient>
</defs>
</svg>
