<svg width="512" height="470" viewBox="0 0 512 470" fill="none" xmlns="http://www.w3.org/2000/svg">
<path fill-rule="evenodd" clip-rule="evenodd" d="M45.28 209.08C58.816 92.3493 157.696 1.63463 277.963 0.941292V0.925293C407.232 0.946626 512 105.731 512 235C512 364.264 407.216 469.069 277.931 469.069C219.157 469.069 165.467 447.416 124.64 411.885L171.104 358.36C200.67 384.067 238.544 398.198 277.723 398.141C367.605 398.141 440.48 325.267 440.48 235.384C440.48 145.501 367.605 72.632 277.723 72.632C196.741 72.632 129.568 131.773 116.928 210.168H158.688L79.232 322.6L0 210.173H45.184L45.28 209.08ZM242.395 249.789V135.656H313.504V220.253L378.597 285.352L328.277 335.672L242.395 249.789Z" fill="url(#paint0_linear_1066_34)"/>
<defs>
<linearGradient id="paint0_linear_1066_34" x1="512" y1="234.997" x2="0" y2="234.997" gradientUnits="userSpaceOnUse">
<stop stop-color="#FFCF43"/>
<stop offset="0.5" stop-color="#FFEBB1"/>
<stop offset="1" stop-color="#FFCF43"/>
</linearGradient>
</defs>
</svg>
