<svg width="410" height="497" viewBox="0 0 410 497" fill="none" xmlns="http://www.w3.org/2000/svg">
<path d="M205.242 0L0.861328 87.7072C0.861328 408.762 205.242 496.485 205.242 496.485C205.242 496.485 409.624 408.778 409.624 87.7072L205.242 0ZM232.751 256.109V358.509H177.517V256.109C152.894 245.17 136.045 220.951 136.045 192.776C136.047 180.338 139.407 168.131 145.769 157.443C152.132 146.755 161.261 137.983 172.194 132.052C183.127 126.121 195.458 123.252 207.887 123.746C220.315 124.24 232.38 128.08 242.807 134.86C253.235 141.64 261.639 151.109 267.133 162.269C272.627 173.428 275.006 185.863 274.021 198.262C273.036 210.661 268.722 222.564 261.534 232.715C254.347 242.867 244.553 250.89 233.185 255.938L232.751 256.109Z" fill="url(#paint0_linear_1066_22)"/>
<defs>
<linearGradient id="paint0_linear_1066_22" x1="409.624" y1="248.242" x2="0.861328" y2="248.242" gradientUnits="userSpaceOnUse">
<stop stop-color="#FFCF43"/>
<stop offset="0.5" stop-color="#FFEBB1"/>
<stop offset="1" stop-color="#FFCF43"/>
</linearGradient>
</defs>
</svg>
