<svg width="512" height="338" viewBox="0 0 512 338" fill="none" xmlns="http://www.w3.org/2000/svg">
<path fill-rule="evenodd" clip-rule="evenodd" d="M302.933 164.093C283.421 201.664 273.181 243.358 273.067 285.693V312.36H172.373C172.588 270.468 181.677 229.098 199.04 190.973C217.444 150.155 241.66 112.215 270.933 78.3334H121.6V0.253418H384V41.6401C352.845 79.5658 325.679 120.6 302.933 164.093ZM443.733 250.707C427.696 271.02 416.727 294.859 411.733 320.253L408.533 336.253L320 320.04C329.106 273.31 354.322 231.258 391.253 201.213L327.253 188.627L354.133 131.88L512 163.027L507.093 187.773C483.965 206.628 462.743 227.706 443.733 250.707ZM131.627 300.413C125.448 275.258 125.448 248.982 131.627 223.827C138.92 194.652 149.29 166.333 162.56 139.347L156.587 114.813L0 152.36V214.653L64 199.507C42.6789 242.316 37.2361 291.301 48.64 337.747L135.467 316.413L131.627 300.413Z" fill="url(#paint0_linear_1066_47)"/>
<defs>
<linearGradient id="paint0_linear_1066_47" x1="512" y1="169" x2="0" y2="169" gradientUnits="userSpaceOnUse">
<stop stop-color="#05483E"/>
<stop offset="0.5" stop-color="#0C6E60"/>
<stop offset="1" stop-color="#05483E"/>
</linearGradient>
</defs>
</svg>
