<svg width="432" height="512" viewBox="0 0 432 512" fill="none" xmlns="http://www.w3.org/2000/svg">
<path d="M216 -0.00805664H215.328C96.4481 -0.00805664 0.0800781 96.3599 0.0800781 215.24C0.0800781 216.664 0.0960746 218.088 0.128075 219.512V219.304V398.296H139.216V244.904H73.7281V219.304C73.6758 217.736 73.6491 216.168 73.6481 214.6C73.6481 136.728 136.784 73.5919 214.656 73.5919H216.08H216H217.36C295.232 73.5919 358.368 136.728 358.368 214.6C358.368 216.248 358.341 217.896 358.288 219.544V219.304V244.904H292.8V398.296H353.168C339.296 431.368 294.928 438.408 216 438.408V512.008C286.192 512.008 431.888 512.008 431.888 372.92V219.32C431.92 218.12 431.92 216.696 431.92 215.272C431.92 96.3919 335.552 0.0239434 216.672 0.0239434H215.952L216 -0.00805664Z" fill="url(#paint0_linear_1066_26)"/>
<defs>
<linearGradient id="paint0_linear_1066_26" x1="431.92" y1="256" x2="0.0800781" y2="256" gradientUnits="userSpaceOnUse">
<stop stop-color="#FFCF43"/>
<stop offset="0.5" stop-color="#FFEBB1"/>
<stop offset="1" stop-color="#FFCF43"/>
</linearGradient>
</defs>
</svg>
