<svg width="512" height="470" viewBox="0 0 512 470" fill="none" xmlns="http://www.w3.org/2000/svg">
<path d="M98.1226 360.814L1.67992 95.8269C-0.857139 88.7579 -0.510338 80.9744 2.64535 74.159C5.80104 67.3436 11.5121 62.0439 18.5439 59.4055L18.7359 59.3415L172.992 3.22419C180.032 0.625456 187.814 0.91855 194.638 4.03944C201.463 7.16032 206.774 12.8553 209.413 19.8802L209.477 20.0775L215.024 35.4375L101.531 347.576C100.024 351.725 98.9041 356.005 98.1866 360.36L98.1226 360.814ZM510.32 103.091L384.021 450.435C379.989 461.379 369.648 469.048 357.52 469.048C354.016 469.048 350.656 468.408 347.552 467.235L347.744 467.299L172.16 403.299C161.136 399.166 153.424 388.718 153.424 376.462C153.424 373.006 154.032 369.688 155.168 366.622L155.104 366.814L281.397 19.6935C285.467 8.66419 295.883 0.952192 308.091 0.952192C311.427 0.946332 314.739 1.53136 317.872 2.68019L317.68 2.61619L493.264 66.6269C504.288 70.7549 512 81.2082 512 93.4642C512 96.9202 511.392 100.232 510.256 103.304L510.32 103.112V103.091ZM403.653 240.478L392.56 214.446C391.089 210.968 388.303 208.213 384.81 206.78C381.316 205.347 377.398 205.354 373.909 206.798L374.005 206.766L352.672 216.158C349.206 217.572 345.323 217.569 341.858 216.151C338.394 214.733 335.624 212.012 334.144 208.574L334.112 208.478L324.939 187.144C324.212 185.423 323.15 183.863 321.816 182.555C320.482 181.247 318.901 180.217 317.165 179.525C315.43 178.833 313.574 178.493 311.706 178.523C309.838 178.554 307.994 178.955 306.283 179.704L306.379 179.672L280.139 190.766C277.576 191.804 275.38 193.582 273.832 195.873C272.284 198.164 271.453 200.864 271.445 203.63C271.445 205.694 271.899 207.646 272.715 209.406L272.683 209.326L304.043 283.363C305.599 286.816 308.443 289.524 311.968 290.911C315.493 292.298 319.42 292.253 322.912 290.787L322.816 290.819L396.629 259.246C398.3 258.443 399.793 257.314 401.02 255.925C402.248 254.537 403.185 252.916 403.777 251.16C404.369 249.404 404.604 247.547 404.467 245.698C404.33 243.85 403.825 242.048 402.981 240.398L403.013 240.478H403.653Z" fill="url(#paint0_linear_1066_71)"/>
<defs>
<linearGradient id="paint0_linear_1066_71" x1="512" y1="235" x2="-0.000488281" y2="235" gradientUnits="userSpaceOnUse">
<stop stop-color="#05483E"/>
<stop offset="0.5" stop-color="#0C6E60"/>
<stop offset="1" stop-color="#05483E"/>
</linearGradient>
</defs>
</svg>
