<svg width="81" height="75" viewBox="0 0 81 75" fill="none" xmlns="http://www.w3.org/2000/svg">
<mask id="path-1-inside-1_114_40" fill="white">
<path fill-rule="evenodd" clip-rule="evenodd" d="M58.1466 9H22.5104V16.6627C22.5021 16.6641 22.4939 16.6655 22.4857 16.6669C21.7326 16.7961 20.9944 17.0113 20.2854 17.3095C19.0501 17.8291 17.9276 18.5908 16.9822 19.551C16.0367 20.5112 15.2867 21.6511 14.775 22.9056C14.2634 24.1602 14 25.5048 14 26.8627C14 28.2206 14.2634 29.5652 14.775 30.8198C15.2867 32.0743 16.0367 33.2142 16.9822 34.1744C17.9276 35.1346 19.0501 35.8963 20.2854 36.4159C20.9944 36.7142 21.7326 36.9293 22.4857 37.0586C22.4939 37.06 22.5021 37.0614 22.5104 37.0628V44.4658C22.5104 49.1495 26.3073 52.9464 30.991 52.9464H37.3099L36.4821 56.7305C35.8141 59.7839 33.5736 62.2522 30.5989 63.2118C29.6048 63.5325 29.8357 65 30.8802 65H50.0201C51.066 65 51.3086 63.5367 50.3186 63.1991C47.51 62.2416 45.3847 59.9165 44.6827 57.0334L43.6876 52.9464H49.6661C54.3498 52.9464 58.1466 49.1495 58.1466 44.4658V37.1093C58.2563 37.0942 58.3658 37.0773 58.4749 37.0586C59.228 36.9293 59.9662 36.7142 60.6752 36.4159C61.9105 35.8963 63.0329 35.1346 63.9784 34.1744C64.9239 33.2142 65.6739 32.0743 66.1855 30.8198C66.6972 29.5652 66.9606 28.2206 66.9606 26.8627C66.9606 25.5048 66.6972 24.1602 66.1855 22.9056C65.6739 21.6511 64.9239 20.5112 63.9784 19.551C63.0329 18.5908 61.9105 17.8292 60.6752 17.3095C59.9662 17.0113 59.228 16.7961 58.4749 16.6669C58.3658 16.6482 58.2563 16.6312 58.1466 16.6161V9ZM60.0175 18.8729C59.5181 18.6628 59.0015 18.5024 58.4749 18.393V26.8627V35.3325C59.0015 35.223 59.5181 35.0626 60.0175 34.8525C61.0452 34.4202 61.9807 33.7859 62.7698 32.9844C63.5591 32.1829 64.1865 31.2299 64.615 30.1792C65.0436 29.1285 65.2645 28.0015 65.2645 26.8627C65.2645 25.7239 65.0436 24.5969 64.615 23.5462C64.1865 22.4955 63.5591 21.5426 62.7698 20.741C61.9807 19.9396 61.0452 19.3052 60.0175 18.8729ZM22.4857 35.3325C21.9591 35.223 21.4425 35.0626 20.9431 34.8525C19.9154 34.4202 18.9799 33.7859 18.1907 32.9844C17.4015 32.1829 16.7741 31.2299 16.3455 30.1792C15.917 29.1285 15.6961 28.0015 15.6961 26.8627C15.6961 25.7239 15.917 24.5969 16.3456 23.5462C16.7741 22.4955 17.4015 21.5426 18.1907 20.741C18.9799 19.9396 19.9154 19.3052 20.9431 18.8729C21.4425 18.6628 21.9591 18.5024 22.4857 18.3929V26.8627V35.3325Z"/>
</mask>
<path fill-rule="evenodd" clip-rule="evenodd" d="M58.1466 9H22.5104V16.6627C22.5021 16.6641 22.4939 16.6655 22.4857 16.6669C21.7326 16.7961 20.9944 17.0113 20.2854 17.3095C19.0501 17.8291 17.9276 18.5908 16.9822 19.551C16.0367 20.5112 15.2867 21.6511 14.775 22.9056C14.2634 24.1602 14 25.5048 14 26.8627C14 28.2206 14.2634 29.5652 14.775 30.8198C15.2867 32.0743 16.0367 33.2142 16.9822 34.1744C17.9276 35.1346 19.0501 35.8963 20.2854 36.4159C20.9944 36.7142 21.7326 36.9293 22.4857 37.0586C22.4939 37.06 22.5021 37.0614 22.5104 37.0628V44.4658C22.5104 49.1495 26.3073 52.9464 30.991 52.9464H37.3099L36.4821 56.7305C35.8141 59.7839 33.5736 62.2522 30.5989 63.2118C29.6048 63.5325 29.8357 65 30.8802 65H50.0201C51.066 65 51.3086 63.5367 50.3186 63.1991C47.51 62.2416 45.3847 59.9165 44.6827 57.0334L43.6876 52.9464H49.6661C54.3498 52.9464 58.1466 49.1495 58.1466 44.4658V37.1093C58.2563 37.0942 58.3658 37.0773 58.4749 37.0586C59.228 36.9293 59.9662 36.7142 60.6752 36.4159C61.9105 35.8963 63.0329 35.1346 63.9784 34.1744C64.9239 33.2142 65.6739 32.0743 66.1855 30.8198C66.6972 29.5652 66.9606 28.2206 66.9606 26.8627C66.9606 25.5048 66.6972 24.1602 66.1855 22.9056C65.6739 21.6511 64.9239 20.5112 63.9784 19.551C63.0329 18.5908 61.9105 17.8292 60.6752 17.3095C59.9662 17.0113 59.228 16.7961 58.4749 16.6669C58.3658 16.6482 58.2563 16.6312 58.1466 16.6161V9ZM60.0175 18.8729C59.5181 18.6628 59.0015 18.5024 58.4749 18.393V26.8627V35.3325C59.0015 35.223 59.5181 35.0626 60.0175 34.8525C61.0452 34.4202 61.9807 33.7859 62.7698 32.9844C63.5591 32.1829 64.1865 31.2299 64.615 30.1792C65.0436 29.1285 65.2645 28.0015 65.2645 26.8627C65.2645 25.7239 65.0436 24.5969 64.615 23.5462C64.1865 22.4955 63.5591 21.5426 62.7698 20.741C61.9807 19.9396 61.0452 19.3052 60.0175 18.8729ZM22.4857 35.3325C21.9591 35.223 21.4425 35.0626 20.9431 34.8525C19.9154 34.4202 18.9799 33.7859 18.1907 32.9844C17.4015 32.1829 16.7741 31.2299 16.3455 30.1792C15.917 29.1285 15.6961 28.0015 15.6961 26.8627C15.6961 25.7239 15.917 24.5969 16.3456 23.5462C16.7741 22.4955 17.4015 21.5426 18.1907 20.741C18.9799 19.9396 19.9154 19.3052 20.9431 18.8729C21.4425 18.6628 21.9591 18.5024 22.4857 18.3929V26.8627V35.3325Z" fill="#06695A"/>
<path d="M22.5104 9V7.5H21.0104V9H22.5104ZM58.1466 9H59.6466V7.5H58.1466V9ZM22.5104 16.6627L22.7603 18.1417L24.0104 17.9305V16.6627H22.5104ZM22.4857 16.6669L22.2321 15.1885L22.232 15.1885L22.4857 16.6669ZM20.2854 17.3095L20.867 18.6921L20.867 18.6921L20.2854 17.3095ZM16.9822 19.551L15.9134 18.4986L15.9134 18.4986L16.9822 19.551ZM14.775 22.9056L13.3861 22.3392L13.3861 22.3392L14.775 22.9056ZM16.9822 34.1744L18.051 33.122L18.051 33.122L16.9822 34.1744ZM20.2854 36.4159L19.7038 37.7986L19.7038 37.7986L20.2854 36.4159ZM22.4857 37.0586L22.7394 35.5802L22.7393 35.5802L22.4857 37.0586ZM22.5104 37.0628H24.0104V35.795L22.7603 35.5837L22.5104 37.0628ZM37.3099 52.9464L38.7753 53.2669L39.1736 51.4464H37.3099V52.9464ZM36.4821 56.7305L37.9474 57.0511L37.9474 57.0511L36.4821 56.7305ZM30.5989 63.2118L30.1384 61.7843L30.1384 61.7843L30.5989 63.2118ZM50.3186 63.1991L50.8026 61.7794L50.8026 61.7794L50.3186 63.1991ZM44.6827 57.0334L46.1401 56.6785L46.1401 56.6785L44.6827 57.0334ZM43.6876 52.9464V51.4464H41.7786L42.2302 53.3012L43.6876 52.9464ZM58.1466 37.1093L57.942 35.6233L56.6466 35.8017V37.1093H58.1466ZM58.4749 37.0586L58.2213 35.5802L58.2212 35.5802L58.4749 37.0586ZM60.6752 36.4159L61.2568 37.7986L61.2568 37.7986L60.6752 36.4159ZM63.9784 34.1744L62.9096 33.122L62.9096 33.122L63.9784 34.1744ZM60.6752 17.3095L61.2568 15.9269L61.2568 15.9269L60.6752 17.3095ZM58.4749 16.6669L58.2213 18.1453L58.2213 18.1453L58.4749 16.6669ZM58.1466 16.6161H56.6466V17.9238L57.942 18.1021L58.1466 16.6161ZM58.4749 18.393L58.7801 16.9243L56.9749 16.5492V18.393H58.4749ZM60.0175 18.8729L60.5992 17.4903L60.5992 17.4903L60.0175 18.8729ZM58.4749 35.3325H56.9749V37.1762L58.7801 36.8011L58.4749 35.3325ZM60.0175 34.8525L60.5992 36.2352L60.5992 36.2352L60.0175 34.8525ZM62.7698 32.9844L61.701 31.932L61.701 31.932L62.7698 32.9844ZM64.615 30.1792L66.004 30.7457L66.004 30.7457L64.615 30.1792ZM64.615 23.5462L66.004 22.9797L66.004 22.9797L64.615 23.5462ZM62.7698 20.741L63.8387 19.6886L63.8387 19.6886L62.7698 20.741ZM20.9431 34.8525L20.3614 36.2352L20.3614 36.2352L20.9431 34.8525ZM22.4857 35.3325L22.1805 36.8011L23.9857 37.1762V35.3325H22.4857ZM18.1907 32.9844L17.1219 34.0368L17.1219 34.0368L18.1907 32.9844ZM16.3455 30.1792L14.9566 30.7457L14.9566 30.7457L16.3455 30.1792ZM16.3456 23.5462L17.7345 24.1127L17.7345 24.1127L16.3456 23.5462ZM18.1907 20.741L19.2596 21.7935L19.2596 21.7935L18.1907 20.741ZM20.9431 18.8729L20.3614 17.4903L20.3614 17.4903L20.9431 18.8729ZM22.4857 18.3929H23.9857V16.5492L22.1805 16.9243L22.4857 18.3929ZM22.5104 10.5H58.1466V7.5H22.5104V10.5ZM24.0104 16.6627V9H21.0104V16.6627H24.0104ZM22.7393 18.1453C22.7463 18.1441 22.7534 18.1429 22.7603 18.1417L22.2605 15.1836C22.2509 15.1852 22.2415 15.1868 22.2321 15.1885L22.7393 18.1453ZM20.867 18.6921C21.4706 18.4382 22.0988 18.2552 22.7393 18.1453L22.232 15.1885C21.3663 15.337 20.5181 15.5843 19.7038 15.9269L20.867 18.6921ZM18.051 20.6034C18.8583 19.7836 19.8153 19.1345 20.867 18.6921L19.7038 15.9269C18.2848 16.5238 16.997 17.398 15.9134 18.4986L18.051 20.6034ZM16.164 23.4721C16.6021 22.3979 17.2437 21.4233 18.051 20.6034L15.9134 18.4986C14.8297 19.5991 13.9714 20.9043 13.3861 22.3392L16.164 23.4721ZM15.5 26.8627C15.5 25.6986 15.7258 24.5464 16.164 23.4721L13.3861 22.3392C12.8009 23.774 12.5 25.311 12.5 26.8627H15.5ZM16.164 30.2533C15.7258 29.179 15.5 28.0268 15.5 26.8627H12.5C12.5 28.4144 12.8009 29.9515 13.3861 31.3863L16.164 30.2533ZM18.051 33.122C17.2437 32.3021 16.6021 31.3275 16.164 30.2533L13.3861 31.3863C13.9713 32.8211 14.8297 34.1264 15.9134 35.2269L18.051 33.122ZM20.867 35.0333C19.8153 34.5909 18.8583 33.9418 18.051 33.122L15.9134 35.2269C16.997 36.3274 18.2848 37.2017 19.7038 37.7986L20.867 35.0333ZM22.7393 35.5802C22.0988 35.4703 21.4706 35.2872 20.867 35.0333L19.7038 37.7986C20.5181 38.1411 21.3663 38.3884 22.232 38.5369L22.7393 35.5802ZM22.7603 35.5837C22.7532 35.5825 22.7463 35.5813 22.7394 35.5802L22.232 38.5369C22.2416 38.5386 22.2511 38.5402 22.2605 38.5418L22.7603 35.5837ZM24.0104 44.4658V37.0628H21.0104V44.4658H24.0104ZM30.991 51.4464C27.1357 51.4464 24.0104 48.3211 24.0104 44.4658H21.0104C21.0104 49.9779 25.4788 54.4464 30.991 54.4464V51.4464ZM37.3099 51.4464H30.991V54.4464H37.3099V51.4464ZM37.9474 57.0511L38.7753 53.2669L35.8446 52.6258L35.0167 56.4099L37.9474 57.0511ZM31.0594 64.6394C34.5421 63.5158 37.1653 60.626 37.9474 57.0511L35.0167 56.4099C34.4628 58.9418 32.605 60.9885 30.1384 61.7843L31.0594 64.6394ZM30.8802 63.5C30.9928 63.5 31.1496 63.5483 31.2785 63.6684C31.3919 63.7741 31.4414 63.8949 31.4569 63.9931C31.4723 64.0913 31.4623 64.2215 31.3868 64.3568C31.301 64.5108 31.1666 64.6048 31.0594 64.6394L30.1384 61.7843C27.5169 62.6299 28.1257 66.5 30.8802 66.5V63.5ZM50.0201 63.5H30.8802V66.5H50.0201V63.5ZM49.8346 64.6189C49.7302 64.5833 49.6002 64.4894 49.5181 64.3379C49.4458 64.2047 49.437 64.0772 49.453 63.9808C49.469 63.8845 49.5184 63.7667 49.6298 63.6638C49.7564 63.547 49.9098 63.5 50.0201 63.5V66.5C52.7617 66.5 53.3976 62.6641 50.8026 61.7794L49.8346 64.6189ZM43.2253 57.3882C44.0485 60.7693 46.5409 63.496 49.8346 64.6189L50.8026 61.7794C48.4791 60.9873 46.7208 59.0637 46.1401 56.6785L43.2253 57.3882ZM42.2302 53.3012L43.2253 57.3882L46.1401 56.6785L45.145 52.5915L42.2302 53.3012ZM49.6661 51.4464H43.6876V54.4464H49.6661V51.4464ZM56.6466 44.4658C56.6466 48.3211 53.5213 51.4464 49.6661 51.4464V54.4464C55.1782 54.4464 59.6466 49.9779 59.6466 44.4658H56.6466ZM56.6466 37.1093V44.4658H59.6466V37.1093H56.6466ZM58.2212 35.5802C58.1284 35.5961 58.0354 35.6105 57.942 35.6233L58.3512 38.5953C58.4773 38.5779 58.6031 38.5585 58.7286 38.537L58.2212 35.5802ZM60.0936 35.0333C59.49 35.2872 58.8618 35.4703 58.2213 35.5802L58.7286 38.537C59.5942 38.3884 60.4425 38.1411 61.2568 37.7986L60.0936 35.0333ZM62.9096 33.122C62.1023 33.9418 61.1452 34.5909 60.0936 35.0333L61.2568 37.7986C62.6758 37.2017 63.9636 36.3274 65.0472 35.2269L62.9096 33.122ZM64.7966 30.2533C64.3585 31.3275 63.7169 32.3021 62.9096 33.122L65.0472 35.2269C66.1309 34.1264 66.9892 32.8211 67.5745 31.3863L64.7966 30.2533ZM65.4606 26.8627C65.4606 28.0268 65.2348 29.179 64.7966 30.2533L67.5745 31.3863C68.1597 29.9515 68.4606 28.4144 68.4606 26.8627H65.4606ZM64.7966 23.4721C65.2348 24.5464 65.4606 25.6986 65.4606 26.8627H68.4606C68.4606 25.311 68.1597 23.774 67.5745 22.3392L64.7966 23.4721ZM62.9096 20.6034C63.7169 21.4233 64.3585 22.3979 64.7966 23.4721L67.5745 22.3392C66.9892 20.9043 66.1309 19.5991 65.0472 18.4986L62.9096 20.6034ZM60.0936 18.6921C61.1452 19.1345 62.1023 19.7836 62.9096 20.6034L65.0472 18.4986C63.9636 17.398 62.6758 16.5238 61.2568 15.9269L60.0936 18.6921ZM58.2213 18.1453C58.8618 18.2552 59.49 18.4382 60.0936 18.6922L61.2568 15.9269C60.4425 15.5843 59.5942 15.337 58.7286 15.1885L58.2213 18.1453ZM57.942 18.1021C58.0354 18.115 58.1284 18.1293 58.2213 18.1453L58.7286 15.1885C58.6031 15.167 58.4773 15.1475 58.3512 15.1301L57.942 18.1021ZM56.6466 9V16.6161H59.6466V9H56.6466ZM58.1697 19.8616C58.6017 19.9513 59.0257 20.083 59.4359 20.2556L60.5992 17.4903C60.0106 17.2427 59.4014 17.0534 58.7801 16.9243L58.1697 19.8616ZM59.9749 26.8627V18.393H56.9749V26.8627H59.9749ZM59.9749 35.3325V26.8627H56.9749V35.3325H59.9749ZM59.4359 33.4699C59.0257 33.6424 58.6017 33.7741 58.1697 33.8639L58.7801 36.8011C59.4014 36.672 60.0106 36.4828 60.5992 36.2352L59.4359 33.4699ZM61.701 31.932C61.05 32.5931 60.2799 33.1148 59.4359 33.4699L60.5992 36.2352C61.8105 35.7256 62.9113 34.9787 63.8387 34.0368L61.701 31.932ZM63.2261 29.6127C62.8711 30.4831 62.3521 31.2707 61.701 31.932L63.8387 34.0368C64.7661 33.095 65.5019 31.9767 66.004 30.7457L63.2261 29.6127ZM63.7645 26.8627C63.7645 27.8077 63.5811 28.7423 63.2261 29.6127L66.004 30.7457C66.506 29.5147 66.7645 28.1953 66.7645 26.8627H63.7645ZM63.2261 24.1127C63.5811 24.9831 63.7645 25.9177 63.7645 26.8627H66.7645C66.7645 25.5301 66.506 24.2107 66.004 22.9797L63.2261 24.1127ZM61.701 21.7935C62.3521 22.4547 62.8711 23.2423 63.2261 24.1127L66.004 22.9797C65.5019 21.7487 64.7661 20.6304 63.8387 19.6886L61.701 21.7935ZM59.4359 20.2556C60.2799 20.6106 61.0501 21.1324 61.701 21.7935L63.8387 19.6886C62.9113 18.7468 61.8105 17.9998 60.5992 17.4903L59.4359 20.2556ZM20.3614 36.2352C20.95 36.4828 21.5592 36.672 22.1805 36.8011L22.7909 33.8638C22.3589 33.7741 21.9349 33.6424 21.5247 33.4699L20.3614 36.2352ZM17.1219 34.0368C18.0493 34.9787 19.1501 35.7256 20.3614 36.2352L21.5247 33.4699C20.6807 33.1148 19.9105 32.5931 19.2596 31.932L17.1219 34.0368ZM14.9566 30.7457C15.4587 31.9767 16.1945 33.095 17.1219 34.0368L19.2596 31.932C18.6085 31.2707 18.0895 30.4831 17.7345 29.6127L14.9566 30.7457ZM14.1961 26.8627C14.1961 28.1953 14.4546 29.5147 14.9566 30.7457L17.7345 29.6127C17.3794 28.7423 17.1961 27.8077 17.1961 26.8627H14.1961ZM14.9566 22.9797C14.4546 24.2107 14.1961 25.5301 14.1961 26.8627H17.1961C17.1961 25.9177 17.3794 24.9831 17.7345 24.1127L14.9566 22.9797ZM17.1219 19.6886C16.1945 20.6304 15.4587 21.7487 14.9566 22.9797L17.7345 24.1127C18.0895 23.2423 18.6085 22.4547 19.2596 21.7935L17.1219 19.6886ZM20.3614 17.4903C19.1501 17.9998 18.0493 18.7468 17.1219 19.6886L19.2596 21.7935C19.9105 21.1324 20.6807 20.6106 21.5247 20.2556L20.3614 17.4903ZM22.1805 16.9243C21.5592 17.0534 20.95 17.2427 20.3614 17.4903L21.5247 20.2556C21.9349 20.083 22.3589 19.9513 22.7909 19.8616L22.1805 16.9243ZM23.9857 26.8627V18.3929H20.9857V26.8627H23.9857ZM23.9857 35.3325V26.8627H20.9857V35.3325H23.9857Z" fill="black" mask="url(#path-1-inside-1_114_40)"/>
</svg>
