<svg width="498" height="502" viewBox="0 0 498 502" fill="none" xmlns="http://www.w3.org/2000/svg">
<path d="M335.961 283.752C529.9 259.877 494.54 81.9304 494.54 81.9304H407.359C410.64 57.391 412.537 28.9646 412.61 0.0888163V0H84.9352C85.0083 28.9437 86.9048 57.3753 90.5411 85.2637L90.1858 81.9148H3.00474C3.00474 81.9148 -32.3389 259.605 161.578 283.737C175.267 303.956 190.365 321.583 207.256 337.309L207.434 337.471C205.287 366.618 193.589 450.445 125.984 450.445H84.9143V501.551H412.589V450.445L355.747 448.528C302.023 436.349 291.992 363.99 290.075 337.471C307.061 321.666 322.215 304.001 335.251 284.808L335.93 283.737L335.961 283.752ZM392.083 158.13L403.545 129.708H447.969C446.245 153.94 437.546 175.846 423.879 193.761L424.088 193.473C409.453 210.147 390.336 222.264 369.012 228.383L368.186 228.582C377.251 208.786 385.437 185.307 391.472 160.977L392.083 158.114V158.13ZM73.4727 193.473C59.5121 175.118 51.2189 153.084 49.6124 130.079L49.5967 129.703H93.5347L105.483 158.13C112.771 185.934 121.423 209.758 131.94 232.558L130.791 229.783C107.756 223.331 88.2475 210.636 73.598 193.63L73.4727 193.489V193.473ZM286.527 214.251L253.08 198.003C251.76 197.288 250.281 196.92 248.78 196.932C247.208 196.932 245.719 197.324 244.428 198.039L244.481 198.024L211.044 214.272C209.691 214.872 208.204 215.103 206.733 214.942C205.262 214.78 203.86 214.232 202.669 213.353C201.479 212.474 200.542 211.296 199.955 209.937C199.368 208.579 199.15 207.09 199.325 205.62V205.652L204.576 168.161C204.745 166.955 204.639 165.726 204.268 164.566C203.896 163.407 203.267 162.346 202.429 161.463L177.111 134.003C176.105 132.951 175.399 131.648 175.067 130.231C174.735 128.814 174.788 127.333 175.221 125.943C175.655 124.554 176.453 123.306 177.532 122.329C178.611 121.352 179.933 120.681 181.358 120.388H181.411L218.902 113.46C221.503 113.173 223.687 111.632 224.852 109.448L224.868 109.411L242.783 75.9693C243.474 74.6737 244.504 73.5897 245.762 72.8326C247.021 72.0756 248.461 71.6739 249.929 71.6701C251.398 71.6664 252.84 72.0608 254.102 72.8113C255.365 73.5619 256.4 74.6406 257.098 75.9327L257.113 75.9693L275.023 109.406C276.152 111.579 278.247 113.115 280.718 113.46H280.754L318.245 120.388C319.68 120.666 321.014 121.327 322.105 122.3C323.196 123.273 324.004 124.523 324.444 125.917C324.885 127.311 324.941 128.798 324.606 130.221C324.272 131.644 323.56 132.951 322.545 134.003L296.266 161.463C294.835 162.972 294.04 164.974 294.045 167.053C294.052 167.44 294.077 167.823 294.119 168.202V168.161L299.369 205.652C299.713 207.288 299.559 208.99 298.926 210.538C298.293 212.085 297.211 213.408 295.818 214.333C294.426 215.259 292.788 215.747 291.116 215.732C289.444 215.717 287.814 215.201 286.439 214.251L286.47 214.272L286.527 214.251Z" fill="url(#paint0_linear_1066_18)"/>
<defs>
<linearGradient id="paint0_linear_1066_18" x1="248.774" y1="0" x2="248.774" y2="501.551" gradientUnits="userSpaceOnUse">
<stop stop-color="#FFCF43"/>
<stop offset="0.5" stop-color="#FFEBB1"/>
<stop offset="1" stop-color="#FFCF43"/>
</linearGradient>
</defs>
</svg>
